<svg width="108" height="140" viewBox="0 0 108 140" fill="none" xmlns="http://www.w3.org/2000/svg">
<path d="M52.0681 0C53.973 1.27613 69.6627 17.3517 72.0757 19.7807L55.0813 36.7334L69.5646 51.264L87.6499 33.1776L107.559 53.0489L90.9229 69.6777L107.525 86.0157L89.0353 104.463L70.7768 86.4619L53.9903 103.251L72.1795 121.442L56.0454 137.553C55.1795 138.533 54.8851 138.677 53.8114 139.32C51.3927 138.172 36.6785 122.826 33.9135 120.016L51.133 102.751L37.7869 89.4168L21.2948 105.881L1.44313 86.0307L17.9237 69.5098L0 51.585L18.4606 33.1741L35.8069 50.5118L50.8559 35.434L33.7462 18.3301L52.0681 0Z" fill="#1A312E"/>
</svg>
