<svg width="160" height="159" viewBox="0 0 160 159" fill="none" xmlns="http://www.w3.org/2000/svg">
<path d="M79.0283 0C80.0883 1.55226 83.7086 9.75879 84.6895 11.8916L98.7061 41.8965C99.858 44.3451 104.2 53.8703 105.459 55.6777C108.033 57.0165 111.772 58.5535 114.471 59.7529L132.789 67.8418C141.202 71.5872 150.701 76.4232 159.272 79.6113C153.676 81.8609 105.141 104.387 103.969 105.752C102.564 107.393 100.475 112.943 99.4531 115.175C94.9492 125.01 90.6564 134.956 86.2578 144.841C84.2198 149.421 82.374 154.214 80.0186 158.636L79.749 158.623C77.0284 152.28 74.3571 146.956 71.4111 140.764C68.6646 134.962 65.96 129.14 63.2988 123.298L57.2842 110.369C56.3924 108.456 54.8169 104.781 53.6895 103.184C50.5536 101.553 47.1194 100.216 43.8809 98.7461L23.0947 89.3711L9.4502 83.3145C6.38732 81.9496 3.14803 80.3993 0 79.3008C3.723 77.4058 7.82626 75.5934 11.6221 73.792L36.3574 62.1396C38.8315 60.9848 54.3912 54.1706 55.1787 52.9707C56.4324 51.0603 61.8166 38.3653 63.0918 35.4961C68.3406 23.6357 73.6528 11.8034 79.0283 0ZM79.6318 43.5264C78.6671 46.2407 77.4341 50.267 75.666 52.4199C73.6548 54.8689 68.0509 56.5203 65.0254 57.1416C69.3346 58.1126 73.8022 59.1424 76.2979 63.1357C79.119 67.6505 78.772 70.907 78.7051 75.8799C74.1676 75.9295 69.4729 76.4761 65.8965 73.0059C63.4146 70.598 62.3121 66.1137 61.6104 62.8154L61.5068 63.0049C57.6956 70.0629 59.6744 72.747 49.5693 75.4551C48.8638 75.6441 47.9121 75.9419 47.085 76.126C51.8817 77.9364 55.7253 78.557 58.0303 83.834C59.0678 86.2093 59.5971 88.0972 60.1182 90.6455C64.8834 81.3018 67.38 77.4828 78.6953 77.6484C78.876 89.3357 75.7389 91.3226 65.292 94.3936C68.9169 94.9751 73.0643 96.2581 75.4561 99.2598C77.4135 101.716 78.5506 106.561 79.7734 108.487C81.0658 103.745 83.4169 99.3193 87.8057 96.793C89.6415 95.7527 91.6107 94.9673 93.6582 94.458C83.4464 91.6316 80.3288 88.7202 80.4512 77.6602C85.2287 77.6081 90.1366 76.9692 93.8643 80.5898C96.0614 82.7238 97.9842 87.7339 98.624 90.7012C102.392 82.1092 104.034 79.4525 113.259 76.7256C103.01 74.4874 102.197 71.923 98.5752 62.6953C95.6516 74.2876 92.2836 76.1216 80.4756 75.8359C80.3824 70.1584 80.1189 66.8775 84.3818 62.1279C86.6056 59.6505 90.8377 58.166 93.916 57.0391C90.4385 56.6103 85.3881 54.8464 83.208 52C81.7982 50.1591 80.4265 46.081 79.8877 43.7578L79.6318 43.5264Z" fill="#3EA536"/>
</svg>
