<svg width="147" height="146" viewBox="0 0 147 146" fill="none" xmlns="http://www.w3.org/2000/svg">
<path d="M72.8066 0C72.9951 0.176521 81.6848 27.1944 82.6084 30.002L82.7656 29.9746C90.9614 28.5643 98.1137 34.5206 99.3789 42.543C108.748 41.5946 116.662 48.2653 116.074 58.085C115.973 59.7808 115.282 62.0838 114.354 63.4941C117.346 64.6847 122.75 66.1269 125.948 67.0752L146.434 73.1143L114.937 83.3115C115.345 84.5133 115.816 86.1831 115.945 87.4375C117.01 97.7494 108.772 104.469 99.1846 103.524C99.3779 105.688 99.5662 107.904 99.1367 110.031C98.0517 115.408 94.0578 119.723 88.7041 121.059C85.9097 121.757 83.9556 121.643 81.167 121.081L73.916 145.534L73.7861 145.994L73.6064 146C72.8032 144.161 70.807 136.831 70.1904 134.567C69.0273 130.299 67.3463 125.474 66.3037 121.314C64.3694 121.944 61.7899 122.096 59.7852 121.803C56.0128 121.249 52.6172 119.209 50.3535 116.141C47.3945 112.152 47.3472 108.35 48.04 103.757C45.3955 103.563 43.0817 103.179 40.6934 101.968C33.9339 98.5386 31.1222 89.7811 34.6494 83.043C30.6786 81.4036 20.9618 78.9737 16.4678 77.6836L6.36426 74.7715C4.44223 74.2119 1.92804 73.3758 0 73.0547C3.52701 71.7044 8.02631 70.4104 11.6885 69.2705L31.3838 63.1387C30.579 53.4354 35.7222 46.8643 45.585 46.0605C46.6849 35.7753 53.8195 30.2693 64.0918 32.1133C67.1655 21.6737 69.6727 10.5222 72.8066 0ZM57.0801 73.2383C62.0264 78.4665 69.0561 85.5487 74.2705 90.4502C75.7388 88.6492 77.8893 86.6449 79.5498 84.9453C83.3757 81.0148 87.2473 77.1275 91.1631 73.2871C86.4189 68.7389 81.8256 63.9372 77.1621 59.2988C76.6875 58.8276 74.4753 56.3349 74.1631 56.1719L57.0801 73.2383Z" fill="#3EA536"/>
</svg>
