<svg width="543" height="282" viewBox="0 0 543 282" fill="none" xmlns="http://www.w3.org/2000/svg">
<path d="M22.88 26.404C22.176 26.5213 21.4427 26.6387 20.68 26.756C19.9467 26.8733 19.1987 26.976 18.436 27.064C17.7027 27.152 16.984 27.2253 16.28 27.284C15.576 27.3133 14.9453 27.328 14.388 27.328C10.252 27.328 7.24533 26.5507 5.368 24.996C3.49067 23.4413 2.552 20.9773 2.552 17.604V7H6.952V17.032C6.952 19.32 7.55333 20.948 8.756 21.916C9.95867 22.884 11.9827 23.368 14.828 23.368C15.4733 23.368 16.1627 23.3533 16.896 23.324C17.6293 23.2653 18.3627 23.2067 19.096 23.148C19.8293 23.06 20.5187 22.972 21.164 22.884C21.8387 22.7667 22.4107 22.6493 22.88 22.532V7H27.28V40H22.88V26.404ZM40.82 19.1H32.548V15.404H53.14V19.1H44.868V40H40.82V19.1ZM68.5963 40.572C66.631 40.572 64.827 40.264 63.1843 39.648C61.5417 39.0027 60.1337 38.1227 58.9603 37.008C57.787 35.864 56.863 34.5 56.1883 32.916C55.543 31.332 55.2203 29.572 55.2203 27.636C55.2203 25.7293 55.543 23.984 56.1883 22.4C56.8337 20.816 57.7283 19.4667 58.8723 18.352C60.0163 17.208 61.3803 16.328 62.9643 15.712C64.5483 15.096 66.279 14.788 68.1563 14.788C69.9163 14.788 71.5737 15.0667 73.1283 15.624C74.683 16.1813 76.0323 17.0027 77.1763 18.088C78.3497 19.1733 79.2737 20.5227 79.9483 22.136C80.623 23.72 80.9603 25.5533 80.9603 27.636V28.824H59.5323C59.6203 29.9973 59.899 31.0973 60.3683 32.124C60.8377 33.1213 61.4683 33.9867 62.2603 34.72C63.0817 35.4533 64.0497 36.0253 65.1643 36.436C66.3083 36.8467 67.555 37.052 68.9043 37.052C69.579 37.052 70.283 36.9933 71.0163 36.876C71.779 36.7293 72.5123 36.524 73.2163 36.26C73.9203 35.9667 74.5803 35.5853 75.1963 35.116C75.8123 34.6467 76.2963 34.0747 76.6483 33.4H80.3003C79.6843 35.6 78.3497 37.3453 76.2963 38.636C74.243 39.9267 71.6763 40.572 68.5963 40.572ZM76.6923 25.304C76.6337 24.2773 76.3697 23.3387 75.9003 22.488C75.4603 21.608 74.859 20.86 74.0963 20.244C73.363 19.628 72.483 19.1587 71.4563 18.836C70.459 18.484 69.359 18.308 68.1563 18.308C67.0417 18.308 66.0003 18.484 65.0323 18.836C64.0643 19.188 63.199 19.672 62.4363 20.288C61.6737 20.904 61.043 21.6373 60.5443 22.488C60.0457 23.3387 59.723 24.2773 59.5763 25.304H76.6923ZM106.514 40H86.8897V15.404H90.9377V36.304H102.554V15.404H106.602V36.304H110.298V45.984H106.514V40ZM121.451 28.736H119.383V40H115.335V15.404H119.383V25.216H121.671L130.075 15.404H135.091L124.839 26.888L135.619 40H130.471L121.451 28.736ZM140.3 15.404H144.348V34.5L156.36 15.404H160.804V40H156.756V20.992L144.788 40H140.3V15.404ZM168.745 15.404H172.793V34.5L184.805 15.404H189.249V40H185.201V20.992L173.233 40H168.745V15.404ZM178.953 12.544C177.926 12.544 176.973 12.4413 176.093 12.236C175.213 12.0013 174.436 11.6493 173.761 11.18C173.116 10.6813 172.602 10.0507 172.221 9.288C171.869 8.52533 171.693 7.60133 171.693 6.516V6.296H175.301V6.516C175.301 7.63066 175.609 8.42266 176.225 8.892C176.841 9.36133 177.765 9.596 178.997 9.596C180.229 9.596 181.153 9.36133 181.769 8.892C182.414 8.42266 182.737 7.63066 182.737 6.516V6.296H186.301V6.516C186.301 7.60133 186.11 8.52533 185.729 9.288C185.348 10.0507 184.82 10.6813 184.145 11.18C183.5 11.6493 182.722 12.0013 181.813 12.236C180.933 12.4413 179.98 12.544 178.953 12.544ZM208.491 15.404H219.711C220.709 15.404 221.662 15.5067 222.571 15.712C223.51 15.9173 224.331 16.2547 225.035 16.724C225.739 17.164 226.297 17.78 226.707 18.572C227.147 19.3347 227.367 20.288 227.367 21.432V21.652C227.367 23.148 226.971 24.3213 226.179 25.172C225.417 26.0227 224.405 26.624 223.143 26.976V27.064C224.815 27.4747 226.077 28.1347 226.927 29.044C227.807 29.924 228.247 31.2 228.247 32.872V33.18C228.247 34.5 228.013 35.6 227.543 36.48C227.103 37.36 226.487 38.064 225.695 38.592C224.903 39.12 223.979 39.4867 222.923 39.692C221.867 39.8973 220.738 40 219.535 40H208.491V15.404ZM218.611 36.656C219.345 36.656 220.034 36.6267 220.679 36.568C221.354 36.48 221.926 36.304 222.395 36.04C222.894 35.776 223.275 35.3947 223.539 34.896C223.833 34.3973 223.979 33.7373 223.979 32.916V32.652C223.979 31.8307 223.833 31.1707 223.539 30.672C223.275 30.144 222.894 29.748 222.395 29.484C221.926 29.1907 221.354 29 220.679 28.912C220.034 28.7947 219.315 28.736 218.523 28.736H212.539V36.656H218.611ZM218.435 25.612C219.11 25.612 219.741 25.568 220.327 25.48C220.914 25.392 221.413 25.2307 221.823 24.996C222.263 24.7613 222.601 24.424 222.835 23.984C223.099 23.544 223.231 22.9573 223.231 22.224V21.96C223.231 21.2853 223.099 20.7427 222.835 20.332C222.571 19.892 222.219 19.5547 221.779 19.32C221.369 19.0853 220.885 18.924 220.327 18.836C219.77 18.748 219.198 18.704 218.611 18.704H212.539V25.612H218.435ZM246.014 40.572C244.049 40.572 242.245 40.264 240.602 39.648C238.96 39.0027 237.552 38.1227 236.378 37.008C235.205 35.864 234.281 34.5 233.606 32.916C232.961 31.332 232.638 29.572 232.638 27.636C232.638 25.7293 232.961 23.984 233.606 22.4C234.252 20.816 235.146 19.4667 236.29 18.352C237.434 17.208 238.798 16.328 240.382 15.712C241.966 15.096 243.697 14.788 245.574 14.788C247.334 14.788 248.992 15.0667 250.546 15.624C252.101 16.1813 253.45 17.0027 254.594 18.088C255.768 19.1733 256.692 20.5227 257.366 22.136C258.041 23.72 258.378 25.5533 258.378 27.636V28.824H236.95C237.038 29.9973 237.317 31.0973 237.786 32.124C238.256 33.1213 238.886 33.9867 239.678 34.72C240.5 35.4533 241.468 36.0253 242.582 36.436C243.726 36.8467 244.973 37.052 246.322 37.052C246.997 37.052 247.701 36.9933 248.434 36.876C249.197 36.7293 249.93 36.524 250.634 36.26C251.338 35.9667 251.998 35.5853 252.614 35.116C253.23 34.6467 253.714 34.0747 254.066 33.4H257.718C257.102 35.6 255.768 37.3453 253.714 38.636C251.661 39.9267 249.094 40.572 246.014 40.572ZM254.11 25.304C254.052 24.2773 253.788 23.3387 253.318 22.488C252.878 21.608 252.277 20.86 251.514 20.244C250.781 19.628 249.901 19.1587 248.874 18.836C247.877 18.484 246.777 18.308 245.574 18.308C244.46 18.308 243.418 18.484 242.45 18.836C241.482 19.188 240.617 19.672 239.854 20.288C239.092 20.904 238.461 21.6373 237.962 22.488C237.464 23.3387 237.141 24.2773 236.994 25.304H254.11ZM277.244 30.188C275.014 30.628 272.902 30.848 270.908 30.848C268.033 30.848 265.965 30.3493 264.704 29.352C263.442 28.3253 262.812 26.624 262.812 24.248V15.404H266.86V23.06C266.86 23.8813 266.933 24.5707 267.08 25.128C267.226 25.656 267.476 26.0667 267.828 26.36C268.18 26.6533 268.664 26.8587 269.28 26.976C269.896 27.0933 270.673 27.152 271.612 27.152C272.814 27.152 273.9 27.0933 274.868 26.976C275.865 26.8587 276.657 26.7267 277.244 26.58V15.404H281.292V40H277.244V30.188ZM300.714 40.572C298.748 40.572 296.944 40.264 295.302 39.648C293.659 39.0027 292.251 38.1227 291.078 37.008C289.904 35.864 288.98 34.5 288.306 32.916C287.66 31.332 287.338 29.572 287.338 27.636C287.338 25.7293 287.66 23.984 288.306 22.4C288.951 20.816 289.846 19.4667 290.99 18.352C292.134 17.208 293.498 16.328 295.082 15.712C296.666 15.096 298.396 14.788 300.274 14.788C302.034 14.788 303.691 15.0667 305.246 15.624C306.8 16.1813 308.15 17.0027 309.294 18.088C310.467 19.1733 311.391 20.5227 312.066 22.136C312.74 23.72 313.078 25.5533 313.078 27.636V28.824H291.65C291.738 29.9973 292.016 31.0973 292.486 32.124C292.955 33.1213 293.586 33.9867 294.378 34.72C295.199 35.4533 296.167 36.0253 297.282 36.436C298.426 36.8467 299.672 37.052 301.022 37.052C301.696 37.052 302.4 36.9933 303.134 36.876C303.896 36.7293 304.63 36.524 305.334 36.26C306.038 35.9667 306.698 35.5853 307.314 35.116C307.93 34.6467 308.414 34.0747 308.766 33.4H312.418C311.802 35.6 310.467 37.3453 308.414 38.636C306.36 39.9267 303.794 40.572 300.714 40.572ZM308.81 25.304C308.751 24.2773 308.487 23.3387 308.018 22.488C307.578 21.608 306.976 20.86 306.214 20.244C305.48 19.628 304.6 19.1587 303.574 18.836C302.576 18.484 301.476 18.308 300.274 18.308C299.159 18.308 298.118 18.484 297.15 18.836C296.182 19.188 295.316 19.672 294.554 20.288C293.791 20.904 293.16 21.6373 292.662 22.488C292.163 23.3387 291.84 24.2773 291.694 25.304H308.81ZM332.427 40.572C330.403 40.572 328.57 40.2053 326.927 39.472C325.284 38.7093 324.023 37.6533 323.143 36.304H323.099V48.492H319.007V15.404H323.099V19.276H323.143C324.463 17.604 325.974 16.4453 327.675 15.8C329.406 15.1253 331.312 14.788 333.395 14.788C335.214 14.788 336.842 15.1253 338.279 15.8C339.716 16.4453 340.934 17.3547 341.931 18.528C342.928 19.672 343.676 21.0213 344.175 22.576C344.703 24.1013 344.967 25.744 344.967 27.504C344.967 29.44 344.659 31.2147 344.043 32.828C343.456 34.4413 342.606 35.82 341.491 36.964C340.406 38.108 339.086 39.0027 337.531 39.648C336.006 40.264 334.304 40.572 332.427 40.572ZM331.943 37.096C333.322 37.096 334.554 36.8467 335.639 36.348C336.724 35.8493 337.634 35.1747 338.367 34.324C339.13 33.444 339.702 32.432 340.083 31.288C340.494 30.1147 340.699 28.8827 340.699 27.592C340.699 26.272 340.494 25.0547 340.083 23.94C339.702 22.796 339.13 21.8133 338.367 20.992C337.604 20.1413 336.651 19.4813 335.507 19.012C334.392 18.5427 333.102 18.308 331.635 18.308C330.168 18.308 328.892 18.5867 327.807 19.144C326.751 19.7013 325.871 20.4347 325.167 21.344C324.463 22.224 323.935 23.236 323.583 24.38C323.26 25.524 323.099 26.6827 323.099 27.856C323.099 29.0587 323.275 30.2173 323.627 31.332C324.008 32.4467 324.566 33.4293 325.299 34.28C326.062 35.1307 326.986 35.82 328.071 36.348C329.186 36.8467 330.476 37.096 331.943 37.096ZM148.362 75.72V75.922C149.271 75.619 149.978 75.619 151.089 75.619C152.806 75.619 154.22 76.124 155.634 78.144C157.048 80.265 157.25 82.79 157.25 83.8C157.25 88.648 154.422 94.001 152.503 96.93C148.968 102.283 145.029 105.01 140.787 105.01C138.363 105.01 136.747 104 135.434 102.384C133.414 99.96 133.111 97.233 133.111 94.203C133.111 84.709 138.06 72.286 142.201 64.408C145.029 59.156 149.473 52.288 153.917 48.349C155.23 47.238 156.846 45.925 158.765 45.925C159.775 45.925 160.583 46.228 161.29 47.238C162.098 48.349 162.199 49.46 162.199 50.47C162.199 52.187 161.795 54.308 161.391 55.621C160.583 58.045 158.462 62.186 156.745 64.812C156.442 65.317 154.624 68.145 152.099 71.276C150.786 72.892 149.271 74.71 148.362 75.72ZM142.403 82.184L141.696 81.578L144.221 78.851C149.271 73.397 152.604 67.337 154.321 64.206C155.735 61.479 158.26 56.631 159.472 52.591C159.674 51.884 160.179 50.066 160.179 49.258C160.179 47.945 159.068 47.44 158.361 47.44C155.129 47.44 150.988 55.318 149.271 58.752C146.14 65.014 143.615 70.872 140.989 79.154C137.252 90.769 136.747 94.708 136.747 97.132C136.747 101.576 138.565 103.495 140.686 103.495C145.029 103.495 147.958 97.94 149.574 94.304C151.089 90.87 153.614 85.315 153.614 81.174C153.614 80.164 153.412 78.952 152.907 78.245C152.402 77.538 151.19 76.932 150.281 76.932C149.271 76.932 147.756 77.538 146.746 78.144C145.433 78.952 143.514 80.669 142.403 82.184ZM210.484 67.438H197.657L185.335 104H180.79L193.011 67.438H186.547V65.923H220.887V67.438H215.13L204.525 97.132C204.222 98.041 203.717 99.253 203.313 100.465C203.01 101.374 202.909 101.879 202.909 102.384C202.909 103.192 203.313 103.495 203.919 103.495C204.626 103.495 205.737 102.99 207.555 100.667C208.363 99.657 210.484 96.627 211.191 95.415L216.342 86.931L217.453 87.537L212.706 95.415C210.989 98.243 209.474 100.566 207.353 102.889C206.343 104 205.131 105.01 203.414 105.01C202.808 105.01 201.899 104.808 201.091 104C200.182 103.091 199.576 101.576 199.576 100.162C199.576 99.455 199.778 98.041 201.192 93.9L210.484 67.438ZM240.526 88.042L242.041 88.648C241.233 90.769 239.819 93.9 238.102 96.526C235.375 100.465 230.628 105.01 226.184 105.01C225.174 105.01 223.356 104.707 221.841 103.091C219.619 100.768 219.316 97.132 219.316 95.213C219.316 88.345 222.851 80.164 226.083 75.215C229.618 69.862 233.254 67.337 234.365 66.63C235.577 65.822 237.496 64.812 239.718 64.812C242.95 64.812 244.566 67.438 244.566 70.064C244.566 72.488 243.455 75.316 242.546 77.235C240.728 80.77 238.405 83.497 235.375 85.921C232.85 88.042 228.507 90.971 223.962 92.587C223.457 94.607 223.053 97.031 223.053 99.253C223.053 100.768 223.356 103.495 226.285 103.495C230.325 103.495 234.87 98.647 236.89 95.516C237.395 94.809 239.112 92.082 240.526 88.042ZM224.164 90.87C226.386 90.062 228.608 88.85 231.234 86.527C234.062 84.002 237.395 79.962 239.415 76.124C241.94 71.175 242.041 69.357 242.041 68.65C242.041 68.145 241.839 66.327 240.021 66.327C238.304 66.327 236.688 67.741 235.88 68.549C233.254 71.175 230.325 75.619 228.507 79.154C226.285 83.497 224.77 88.749 224.164 90.87ZM237.47 132.28L246.055 105.111C245.045 105.111 243.429 104.909 241.106 103.899L241.409 102.081C243.934 103.192 245.146 103.394 246.661 103.293L262.72 51.985H262.417L247.368 77.033L245.954 76.427L262.316 49.258C264.538 45.622 266.053 41.582 267.063 38.451L269.79 29.765H271.81L257.266 79.558H257.771C261.104 74.104 263.326 70.569 266.76 67.337C268.679 65.519 269.891 64.812 271.911 64.812C277.163 64.812 277.365 69.559 277.365 70.973C277.365 73.599 276.961 76.73 274.638 81.881C272.315 86.931 269.184 91.779 265.649 95.819C262.821 99.051 259.589 101.98 255.448 103.697C252.923 104.707 251.105 104.909 249.893 105.01L241.813 132.28H237.47ZM253.226 93.496L250.297 103.394C254.842 102.384 258.377 99.758 261.811 95.617C265.245 91.476 267.871 86.527 270.194 80.972C273.527 72.791 273.729 70.67 273.729 69.761C273.729 66.933 272.416 66.327 271.507 66.327C270.497 66.327 269.083 67.337 268.275 67.943C265.245 70.468 261.104 76.73 258.882 80.669C256.66 84.608 254.337 89.86 253.226 93.496ZM299.706 88.042L301.221 88.648C300.413 90.769 298.999 93.9 297.282 96.526C294.555 100.465 289.808 105.01 285.364 105.01C284.354 105.01 282.536 104.707 281.021 103.091C278.799 100.768 278.496 97.132 278.496 95.213C278.496 88.345 282.031 80.164 285.263 75.215C288.798 69.862 292.434 67.337 293.545 66.63C294.757 65.822 296.676 64.812 298.898 64.812C302.13 64.812 303.746 67.438 303.746 70.064C303.746 72.488 302.635 75.316 301.726 77.235C299.908 80.77 297.585 83.497 294.555 85.921C292.03 88.042 287.687 90.971 283.142 92.587C282.637 94.607 282.233 97.031 282.233 99.253C282.233 100.768 282.536 103.495 285.465 103.495C289.505 103.495 294.05 98.647 296.07 95.516C296.575 94.809 298.292 92.082 299.706 88.042ZM283.344 90.87C285.566 90.062 287.788 88.85 290.414 86.527C293.242 84.002 296.575 79.962 298.595 76.124C301.12 71.175 301.221 69.357 301.221 68.65C301.221 68.145 301.019 66.327 299.201 66.327C297.484 66.327 295.868 67.741 295.06 68.549C292.434 71.175 289.505 75.619 287.687 79.154C285.465 83.497 283.95 88.749 283.344 90.87ZM316.244 39.057L316.345 37.34C317.456 36.734 318.264 36.633 319.476 36.633C321.294 36.633 327.354 36.734 331.394 44.41C332 45.521 334.525 50.571 334.525 59.56C334.525 65.519 333.515 70.973 331.899 76.528C331.596 77.538 329.475 84.911 326.344 91.274C324.425 95.112 322.506 98.041 319.779 100.97C317.961 102.889 315.537 105.01 312.305 105.01C310.992 105.01 308.467 104.606 306.75 101.778C305.336 99.556 304.831 96.122 304.831 93.597C304.831 88.143 307.457 81.174 309.881 76.831C314.426 68.65 319.779 64.812 323.617 64.812C327.657 64.812 328.364 69.054 328.364 71.68V73.094H328.667C330.485 67.539 331.495 60.267 331.495 55.823C331.495 50.975 330.485 46.228 328.364 43.097C327.354 41.582 324.324 38.148 319.476 38.148C318.163 38.148 317.254 38.35 316.244 39.057ZM309.174 91.678C308.77 93.597 308.366 95.516 308.366 97.435C308.366 102.485 310.79 103.495 312.305 103.495C313.921 103.495 315.941 102.182 317.658 99.657C319.981 96.324 323.314 88.042 324.829 82.992C325.637 80.164 326.647 76.225 326.647 72.286C326.647 70.064 326.344 66.327 323.516 66.327C319.173 66.327 315.335 75.215 313.517 79.154C311.8 82.992 310.184 87.436 309.174 91.678ZM354.743 88.042L356.258 88.648C355.45 90.769 354.036 93.9 352.319 96.526C349.592 100.465 344.845 105.01 340.401 105.01C339.391 105.01 337.573 104.707 336.058 103.091C333.836 100.768 333.533 97.132 333.533 95.213C333.533 88.345 337.068 80.164 340.3 75.215C343.835 69.862 347.471 67.337 348.582 66.63C349.794 65.822 351.713 64.812 353.935 64.812C357.167 64.812 358.783 67.438 358.783 70.064C358.783 72.488 357.672 75.316 356.763 77.235C354.945 80.77 352.622 83.497 349.592 85.921C347.067 88.042 342.724 90.971 338.179 92.587C337.674 94.607 337.27 97.031 337.27 99.253C337.27 100.768 337.573 103.495 340.502 103.495C344.542 103.495 349.087 98.647 351.107 95.516C351.612 94.809 353.329 92.082 354.743 88.042ZM338.381 90.87C340.603 90.062 342.825 88.85 345.451 86.527C348.279 84.002 351.612 79.962 353.632 76.124C356.157 71.175 356.258 69.357 356.258 68.65C356.258 68.145 356.056 66.327 354.238 66.327C352.521 66.327 350.905 67.741 350.097 68.549C347.471 71.175 344.542 75.619 342.724 79.154C340.502 83.497 338.987 88.749 338.381 90.87ZM396.127 67.438H390.774L380.27 97.132C379.058 100.667 378.654 101.576 378.654 102.384C378.654 103.394 379.159 103.495 379.563 103.495C381.078 103.495 382.492 101.677 383.401 100.364C384.613 98.748 385.724 97.233 386.835 95.415L391.986 86.931L393.097 87.537L388.35 95.415C386.835 97.94 385.522 100.061 382.997 102.889C381.987 104 380.977 105.01 379.058 105.01C378.25 105.01 377.442 104.707 376.735 104C375.826 103.091 375.22 101.576 375.22 100.061C375.22 99.455 375.422 97.94 376.836 93.9L386.229 67.438H378.25L376.23 73.397C375.725 75.013 373.2 81.477 371.988 84.406C370.271 88.446 368.049 92.789 365.423 97.031C364.009 99.354 362.09 102.081 359.666 103.697C358.454 104.505 357.242 105.01 355.828 105.01C355.02 105.01 354.212 104.808 353.505 104.202C352.798 103.596 352.394 102.687 352.394 101.778C352.394 100.364 353.606 99.253 355.02 99.253C356.434 99.253 357.444 100.263 357.444 101.677C357.444 102.485 357.242 102.889 356.939 103.293L357.04 103.394C358.454 102.889 360.676 101.576 364.211 95.92C366.332 92.486 368.857 87.133 370.574 83.194C372.594 78.447 373.503 75.821 374.614 72.69L376.533 67.438H366.837V65.923H396.127V67.438ZM395.587 104L411.949 51.985H411.646L396.597 77.033L395.284 76.427L411.646 49.258C413.363 46.329 415.383 41.279 416.292 38.451L419.019 29.765H421.039L402.657 93.698H403.263C405.384 89.557 406.798 87.537 408.313 85.315C410.737 81.679 411.545 80.265 415.181 75.922C417.706 72.892 419.827 70.569 422.655 68.145C424.978 66.125 427.099 64.812 429.321 64.812C431.745 64.812 432.755 66.327 432.755 67.842C432.755 68.347 432.351 70.367 430.533 70.367C429.826 70.367 429.22 70.064 428.816 69.66C428.412 69.256 428.311 68.751 428.311 68.246C428.311 67.337 428.715 66.63 429.624 66.529V66.428C429.422 66.327 429.22 66.327 429.018 66.327C426.998 66.327 424.372 68.549 422.958 69.862C420.534 71.983 420.736 71.781 417.605 75.316C416.292 76.73 415.484 77.538 414.07 79.558C413.464 80.467 413.565 80.265 411.848 82.487C412.757 83.093 413.969 84.002 414.878 85.012C417.605 88.042 417.807 91.981 418.009 95.314C418.11 97.334 418.312 99.859 419.524 101.677C420.534 103.192 421.746 103.495 423.059 103.495C424.17 103.495 424.978 103.293 425.887 102.384C426.695 101.475 426.998 100.566 426.998 99.455C426.998 98.849 426.796 97.839 426.291 97.334C425.887 96.93 425.382 96.829 424.877 96.728C424.473 96.627 424.17 96.627 423.766 96.728V95.617C424.069 95.516 424.372 95.516 424.675 95.516C425.786 95.516 426.695 95.819 427.2 96.223C427.907 96.829 428.412 97.94 428.412 99.354C428.412 101.374 427.705 102.687 426.796 103.495C425.988 104.303 424.675 105.01 422.655 105.01C420.534 105.01 419.12 104.303 417.605 102.889C415.686 100.97 414.878 98.95 414.373 96.324C413.868 93.496 413.868 91.678 413.565 89.254C413.06 85.113 412.757 84.103 411.141 83.497C409.929 85.214 409.323 86.123 408.212 87.941C407.101 89.759 404.273 94.304 402.758 97.435L399.526 104H395.587ZM463.704 71.983H462.997L436.838 104H432.596L443.605 72.69C444.11 71.377 443.807 72.084 444.615 69.963C445.019 68.953 445.221 68.145 445.221 67.438C445.221 66.529 444.413 66.327 444.211 66.327C443.908 66.327 443.302 66.327 441.787 67.943C440.373 69.357 437.646 73.498 437.04 74.508L431.889 82.992L430.677 82.386L435.525 74.407C438.252 69.963 440.272 67.64 440.878 66.933C441.686 66.024 442.797 64.812 444.514 64.812C445.524 64.812 446.433 65.317 447.14 65.923C448.15 66.832 448.655 68.145 448.655 69.458C448.655 70.165 448.453 71.478 446.938 75.922L439.262 97.839H439.969L466.33 65.923H470.471L459.361 97.132C459.26 97.334 459.26 97.536 459.159 97.738C458.957 98.344 458.654 98.95 458.452 99.556C458.149 100.364 457.745 101.576 457.745 102.283C457.745 103.091 458.149 103.495 458.755 103.495C459.159 103.495 460.27 103.394 462.492 100.566C463.199 99.758 465.421 96.526 466.027 95.415L471.178 86.931L472.289 87.537L467.542 95.415C466.33 97.435 463.704 101.172 462.189 102.889C461.179 104 459.967 105.01 458.25 105.01C457.24 105.01 456.533 104.606 455.927 104C454.614 102.788 454.311 101.374 454.311 100.465C454.311 99.657 454.513 98.344 456.028 93.9L463.704 71.983ZM475.6 104L486.609 72.69C486.71 72.387 486.912 71.983 487.013 71.68C487.215 71.175 487.316 70.771 487.518 70.266C487.922 69.155 488.225 68.347 488.225 67.438C488.225 66.529 487.619 66.327 487.215 66.327C486.508 66.327 485.599 67.135 485.296 67.438C483.074 69.559 480.852 73.094 480.044 74.508L474.893 82.992L473.681 82.386L478.529 74.407C480.65 70.973 481.66 69.357 483.882 66.933C484.69 66.024 485.801 64.812 487.518 64.812C488.326 64.812 489.336 65.115 490.144 65.923C491.356 67.034 491.659 68.448 491.659 69.66C491.659 71.68 490.649 73.902 489.942 75.922L487.417 83.194H500.446L506.506 65.923H511.051L500.042 97.132C499.335 99.152 499.335 98.849 499.032 99.758C498.83 100.364 498.426 101.576 498.426 102.182C498.426 103.495 499.335 103.495 499.436 103.495C500.244 103.495 501.355 102.788 503.072 100.566C503.981 99.455 505.9 96.526 506.607 95.415L511.758 86.931L512.97 87.537L508.122 95.415C506.506 98.142 505.395 99.96 502.769 102.889C501.759 104 500.749 105.01 498.931 105.01C498.022 105.01 497.214 104.707 496.507 104C495.598 103.091 494.992 101.475 494.992 99.859C494.992 98.647 495.497 97.334 496.709 93.9L499.941 84.709H486.912L480.145 104H475.6ZM521.991 105.01C518.86 105.01 517.244 102.889 516.537 101.677C515.325 99.657 514.82 96.122 514.82 93.597C514.82 89.355 516.234 81.78 520.678 75.013C521.385 74.003 524.213 69.66 528.354 66.832C530.273 65.519 531.889 64.812 533.808 64.812C536.636 64.812 538.555 65.923 539.767 67.842C541.282 70.165 541.383 73.094 541.383 75.013C541.383 80.871 540.07 85.618 537.04 91.476C532.293 100.566 526.536 105.01 521.991 105.01ZM522.193 103.495C524.718 103.495 527.849 101.778 532.394 90.567C534.919 84.305 537.747 76.528 537.747 70.872C537.747 69.963 537.646 68.246 536.737 67.337C536.131 66.731 535.02 66.327 534.111 66.327C532.596 66.327 531.384 67.236 530.475 68.044C528.859 69.559 527.041 71.983 523.91 78.447C521.789 82.79 520.779 85.719 519.769 89.254C518.759 92.789 518.456 94.405 518.456 97.94C518.456 99.455 518.557 100.667 519.365 101.98C520.173 103.192 520.981 103.495 522.193 103.495Z" fill="black"/>
<path d="M134.325 159.25H137.375L144.35 178H141.725L139.875 172.95H131.775L129.975 178H127.4L134.325 159.25ZM139.125 170.75L135.85 161.675L132.575 170.75H139.125ZM146.999 164.025H149.299V174.875L156.124 164.025H158.649V178H156.349V167.2L149.549 178H146.999V164.025ZM152.799 162.4C152.216 162.4 151.674 162.342 151.174 162.225C150.674 162.092 150.232 161.892 149.849 161.625C149.482 161.342 149.191 160.983 148.974 160.55C148.774 160.117 148.674 159.592 148.674 158.975V158.85H150.724V158.975C150.724 159.608 150.899 160.058 151.249 160.325C151.599 160.592 152.124 160.725 152.824 160.725C153.524 160.725 154.049 160.592 154.399 160.325C154.766 160.058 154.949 159.608 154.949 158.975V158.85H156.974V158.975C156.974 159.592 156.866 160.117 156.649 160.55C156.432 160.983 156.132 161.342 155.749 161.625C155.382 161.892 154.941 162.092 154.424 162.225C153.924 162.342 153.382 162.4 152.799 162.4ZM161.711 175.9H163.186C163.586 175.067 163.886 174.3 164.086 173.6C164.303 172.883 164.461 172.142 164.561 171.375C164.661 170.592 164.719 169.75 164.736 168.85C164.753 167.933 164.761 166.867 164.761 165.65V164.025H174.561V175.9H176.661V181.4H174.511V178H163.861V181.4H161.711V175.9ZM172.261 175.9V166.125H166.886V166.975C166.886 167.992 166.861 168.925 166.811 169.775C166.778 170.625 166.703 171.408 166.586 172.125C166.486 172.842 166.344 173.508 166.161 174.125C165.994 174.742 165.778 175.333 165.511 175.9H172.261ZM185.199 178.35C184.049 178.35 183.049 178.175 182.199 177.825C181.349 177.475 180.641 176.975 180.074 176.325C179.524 175.675 179.108 174.9 178.824 174C178.558 173.1 178.424 172.1 178.424 171V170.85C178.424 169.8 178.558 168.842 178.824 167.975C179.108 167.092 179.516 166.333 180.049 165.7C180.599 165.05 181.283 164.55 182.099 164.2C182.916 163.85 183.874 163.675 184.974 163.675C185.924 163.675 186.783 163.833 187.549 164.15C188.333 164.45 188.999 164.883 189.549 165.45C190.099 166.017 190.524 166.7 190.824 167.5C191.124 168.283 191.274 169.158 191.274 170.125V171.725H180.824C180.858 172.342 180.966 172.933 181.149 173.5C181.333 174.067 181.599 174.558 181.949 174.975C182.299 175.392 182.741 175.725 183.274 175.975C183.824 176.225 184.474 176.35 185.224 176.35C185.608 176.35 185.983 176.317 186.349 176.25C186.716 176.167 187.049 176.05 187.349 175.9C187.666 175.733 187.941 175.517 188.174 175.25C188.408 174.983 188.583 174.65 188.699 174.25H190.899C190.649 175.483 190.058 176.475 189.124 177.225C188.191 177.975 186.883 178.35 185.199 178.35ZM188.924 169.725V169.6C188.924 168.967 188.824 168.408 188.624 167.925C188.424 167.442 188.149 167.033 187.799 166.7C187.449 166.367 187.033 166.117 186.549 165.95C186.066 165.767 185.541 165.675 184.974 165.675C184.291 165.675 183.699 165.775 183.199 165.975C182.699 166.175 182.283 166.458 181.949 166.825C181.616 167.175 181.358 167.6 181.174 168.1C181.008 168.6 180.899 169.142 180.849 169.725H188.924ZM194.924 164.025H197.224V169.55H204.124V164.025H206.424V178H204.124V171.65H197.224V178H194.924V164.025ZM213.865 166.125H209.165V164.025H220.865V166.125H216.165V178H213.865V166.125ZM223.61 164.025H225.91V174.875L232.735 164.025H235.26V178H232.96V167.2L226.16 178H223.61V164.025ZM243.247 171.6H242.072V178H239.772V164.025H242.072V169.6H243.372L248.147 164.025H250.997L245.172 170.55L251.297 178H248.372L243.247 171.6ZM257.391 178.35C255.924 178.35 254.774 177.975 253.941 177.225C253.107 176.475 252.691 175.45 252.691 174.15C252.691 173.517 252.774 172.983 252.941 172.55C253.124 172.1 253.424 171.725 253.841 171.425C254.274 171.108 254.832 170.85 255.516 170.65C256.216 170.45 257.074 170.283 258.091 170.15C259.074 170.017 259.832 169.917 260.366 169.85C260.899 169.767 261.291 169.683 261.541 169.6C261.791 169.5 261.932 169.392 261.966 169.275C262.016 169.142 262.041 168.967 262.041 168.75V168.55C262.041 167.55 261.791 166.825 261.291 166.375C260.807 165.908 260.016 165.675 258.916 165.675C257.749 165.675 256.907 165.875 256.391 166.275C255.891 166.658 255.607 167.325 255.541 168.275H253.241C253.324 166.825 253.874 165.7 254.891 164.9C255.924 164.083 257.324 163.675 259.091 163.675C262.591 163.675 264.341 165.283 264.341 168.5V178H262.166V175.7H262.141C261.724 176.5 261.107 177.142 260.291 177.625C259.491 178.108 258.524 178.35 257.391 178.35ZM257.991 176.35C259.191 176.35 260.166 176 260.916 175.3C261.666 174.6 262.041 173.5 262.041 172V171.15C261.691 171.333 261.207 171.483 260.591 171.6C259.991 171.7 259.232 171.817 258.316 171.95C257.666 172.05 257.124 172.15 256.691 172.25C256.274 172.35 255.949 172.475 255.716 172.625C255.482 172.775 255.316 172.958 255.216 173.175C255.132 173.375 255.091 173.633 255.091 173.95C255.091 174.733 255.332 175.333 255.816 175.75C256.316 176.15 257.041 176.35 257.991 176.35ZM273.503 175.9H274.978C275.378 175.067 275.678 174.3 275.878 173.6C276.095 172.883 276.253 172.142 276.353 171.375C276.453 170.592 276.511 169.75 276.528 168.85C276.545 167.933 276.553 166.867 276.553 165.65V164.025H286.353V175.9H288.453V181.4H286.303V178H275.653V181.4H273.503V175.9ZM284.053 175.9V166.125H278.678V166.975C278.678 167.992 278.653 168.925 278.603 169.775C278.57 170.625 278.495 171.408 278.378 172.125C278.278 172.842 278.136 173.508 277.953 174.125C277.786 174.742 277.57 175.333 277.303 175.9H284.053ZM291.342 178.075C291.159 178.075 290.992 178.067 290.842 178.05C290.692 178.05 290.551 178.042 290.417 178.025V175.75C290.501 175.767 290.584 175.783 290.667 175.8C290.751 175.8 290.834 175.8 290.917 175.8C291.367 175.8 291.734 175.692 292.017 175.475C292.317 175.242 292.551 174.842 292.717 174.275C292.884 173.708 293.001 172.942 293.067 171.975C293.134 170.992 293.167 169.758 293.167 168.275V164.025H302.792V178H300.492V166.125H295.367V168.5C295.367 170.167 295.309 171.608 295.192 172.825C295.092 174.025 294.892 175.017 294.592 175.8C294.292 176.583 293.884 177.158 293.367 177.525C292.851 177.892 292.176 178.075 291.342 178.075ZM309.552 172.825C308.668 172.575 307.952 172.125 307.402 171.475C306.868 170.825 306.602 169.908 306.602 168.725V168.575C306.602 167.075 307.06 165.942 307.977 165.175C308.893 164.408 310.168 164.025 311.802 164.025H317.852V178H315.527V173.1H312.002L309.052 178H306.252L309.552 172.825ZM315.552 171.15V166.075H312.227C311.21 166.075 310.427 166.25 309.877 166.6C309.327 166.95 309.052 167.608 309.052 168.575V168.725C309.052 169.625 309.31 170.258 309.827 170.625C310.343 170.975 311.093 171.15 312.077 171.15H315.552ZM334.587 178.35C333.437 178.35 332.445 178.175 331.612 177.825C330.778 177.475 330.087 176.975 329.537 176.325C328.987 175.675 328.578 174.9 328.312 174C328.045 173.1 327.912 172.1 327.912 171V170.85C327.912 169.8 328.045 168.842 328.312 167.975C328.595 167.092 329.003 166.333 329.537 165.7C330.087 165.05 330.77 164.55 331.587 164.2C332.403 163.85 333.362 163.675 334.462 163.675C335.412 163.675 336.245 163.808 336.962 164.075C337.678 164.325 338.278 164.675 338.762 165.125C339.262 165.575 339.645 166.117 339.912 166.75C340.178 167.367 340.345 168.042 340.412 168.775H338.112C337.962 167.708 337.57 166.925 336.937 166.425C336.32 165.925 335.503 165.675 334.487 165.675C333.737 165.675 333.095 165.808 332.562 166.075C332.045 166.325 331.612 166.683 331.262 167.15C330.928 167.617 330.687 168.158 330.537 168.775C330.387 169.392 330.312 170.067 330.312 170.8V170.95C330.312 171.65 330.387 172.325 330.537 172.975C330.703 173.625 330.953 174.2 331.287 174.7C331.637 175.2 332.087 175.6 332.637 175.9C333.187 176.2 333.853 176.35 334.637 176.35C336.653 176.35 337.837 175.417 338.187 173.55H340.487C340.253 175.1 339.637 176.292 338.637 177.125C337.653 177.942 336.303 178.35 334.587 178.35ZM344.143 164.025H350.518C351.084 164.025 351.626 164.083 352.143 164.2C352.676 164.317 353.143 164.508 353.543 164.775C353.943 165.025 354.259 165.375 354.493 165.825C354.743 166.258 354.868 166.8 354.868 167.45V167.575C354.868 168.425 354.643 169.092 354.193 169.575C353.759 170.058 353.184 170.4 352.468 170.6V170.65C353.418 170.883 354.134 171.258 354.618 171.775C355.118 172.275 355.368 173 355.368 173.95V174.125C355.368 174.875 355.234 175.5 354.968 176C354.718 176.5 354.368 176.9 353.918 177.2C353.468 177.5 352.943 177.708 352.343 177.825C351.743 177.942 351.101 178 350.418 178H344.143V164.025ZM349.893 176.1C350.309 176.1 350.701 176.083 351.068 176.05C351.451 176 351.776 175.9 352.043 175.75C352.326 175.6 352.543 175.383 352.693 175.1C352.859 174.817 352.943 174.442 352.943 173.975V173.825C352.943 173.358 352.859 172.983 352.693 172.7C352.543 172.4 352.326 172.175 352.043 172.025C351.776 171.858 351.451 171.75 351.068 171.7C350.701 171.633 350.293 171.6 349.843 171.6H346.443V176.1H349.893ZM349.793 169.825C350.176 169.825 350.534 169.8 350.868 169.75C351.201 169.7 351.484 169.608 351.718 169.475C351.968 169.342 352.159 169.15 352.293 168.9C352.443 168.65 352.518 168.317 352.518 167.9V167.75C352.518 167.367 352.443 167.058 352.293 166.825C352.143 166.575 351.943 166.383 351.693 166.25C351.459 166.117 351.184 166.025 350.868 165.975C350.551 165.925 350.226 165.9 349.893 165.9H346.443V169.825H349.793ZM364.863 178.35C363.713 178.35 362.713 178.175 361.863 177.825C361.013 177.475 360.304 176.975 359.738 176.325C359.188 175.675 358.771 174.9 358.488 174C358.221 173.1 358.088 172.1 358.088 171V170.85C358.088 169.8 358.221 168.842 358.488 167.975C358.771 167.092 359.179 166.333 359.713 165.7C360.263 165.05 360.946 164.55 361.763 164.2C362.579 163.85 363.538 163.675 364.638 163.675C365.588 163.675 366.446 163.833 367.213 164.15C367.996 164.45 368.663 164.883 369.213 165.45C369.763 166.017 370.188 166.7 370.488 167.5C370.788 168.283 370.938 169.158 370.938 170.125V171.725H360.488C360.521 172.342 360.629 172.933 360.813 173.5C360.996 174.067 361.263 174.558 361.613 174.975C361.963 175.392 362.404 175.725 362.938 175.975C363.488 176.225 364.138 176.35 364.888 176.35C365.271 176.35 365.646 176.317 366.013 176.25C366.379 176.167 366.713 176.05 367.013 175.9C367.329 175.733 367.604 175.517 367.838 175.25C368.071 174.983 368.246 174.65 368.363 174.25H370.563C370.313 175.483 369.721 176.475 368.788 177.225C367.854 177.975 366.546 178.35 364.863 178.35ZM368.588 169.725V169.6C368.588 168.967 368.488 168.408 368.288 167.925C368.088 167.442 367.813 167.033 367.463 166.7C367.113 166.367 366.696 166.117 366.213 165.95C365.729 165.767 365.204 165.675 364.638 165.675C363.954 165.675 363.363 165.775 362.863 165.975C362.363 166.175 361.946 166.458 361.613 166.825C361.279 167.175 361.021 167.6 360.838 168.1C360.671 168.6 360.563 169.142 360.513 169.725H368.588ZM377.049 166.125H372.349V164.025H384.049V166.125H379.349V178H377.049V166.125ZM392.131 178.35C390.981 178.35 389.989 178.175 389.156 177.825C388.322 177.475 387.631 176.975 387.081 176.325C386.531 175.675 386.122 174.9 385.856 174C385.589 173.1 385.456 172.1 385.456 171V170.85C385.456 169.8 385.589 168.842 385.856 167.975C386.139 167.092 386.547 166.333 387.081 165.7C387.631 165.05 388.314 164.55 389.131 164.2C389.947 163.85 390.906 163.675 392.006 163.675C392.956 163.675 393.789 163.808 394.506 164.075C395.222 164.325 395.822 164.675 396.306 165.125C396.806 165.575 397.189 166.117 397.456 166.75C397.722 167.367 397.889 168.042 397.956 168.775H395.656C395.506 167.708 395.114 166.925 394.481 166.425C393.864 165.925 393.047 165.675 392.031 165.675C391.281 165.675 390.639 165.808 390.106 166.075C389.589 166.325 389.156 166.683 388.806 167.15C388.472 167.617 388.231 168.158 388.081 168.775C387.931 169.392 387.856 170.067 387.856 170.8V170.95C387.856 171.65 387.931 172.325 388.081 172.975C388.247 173.625 388.497 174.2 388.831 174.7C389.181 175.2 389.631 175.6 390.181 175.9C390.731 176.2 391.397 176.35 392.181 176.35C394.197 176.35 395.381 175.417 395.731 173.55H398.031C397.797 175.1 397.181 176.292 396.181 177.125C395.197 177.942 393.847 178.35 392.131 178.35ZM405.162 171.6H403.987V178H401.687V164.025H403.987V169.6H405.287L410.062 164.025H412.912L407.087 170.55L413.212 178H410.287L405.162 171.6ZM421.208 178.35C420.141 178.35 419.191 178.175 418.358 177.825C417.524 177.475 416.824 176.983 416.258 176.35C415.691 175.7 415.258 174.933 414.958 174.05C414.674 173.15 414.533 172.167 414.533 171.1V170.9C414.533 169.85 414.674 168.883 414.958 168C415.258 167.1 415.683 166.333 416.233 165.7C416.799 165.067 417.491 164.575 418.308 164.225C419.141 163.858 420.091 163.675 421.158 163.675C422.224 163.675 423.166 163.858 423.983 164.225C424.799 164.575 425.483 165.075 426.033 165.725C426.599 166.358 427.024 167.117 427.308 168C427.591 168.883 427.733 169.85 427.733 170.9V171.1C427.733 172.15 427.608 173.125 427.358 174.025C427.108 174.908 426.716 175.675 426.183 176.325C425.649 176.958 424.966 177.458 424.133 177.825C423.316 178.175 422.341 178.35 421.208 178.35ZM421.283 176.35C421.966 176.35 422.558 176.225 423.058 175.975C423.574 175.708 423.999 175.35 424.333 174.9C424.666 174.433 424.916 173.875 425.083 173.225C425.249 172.575 425.333 171.867 425.333 171.1V170.9C425.333 170.167 425.249 169.483 425.083 168.85C424.916 168.217 424.658 167.667 424.308 167.2C423.974 166.733 423.541 166.367 423.008 166.1C422.491 165.817 421.874 165.675 421.158 165.675C420.424 165.675 419.791 165.808 419.258 166.075C418.724 166.342 418.283 166.708 417.933 167.175C417.599 167.642 417.349 168.2 417.183 168.85C417.016 169.483 416.933 170.167 416.933 170.9V171.1C416.933 171.85 417.016 172.55 417.183 173.2C417.366 173.833 417.641 174.383 418.008 174.85C418.374 175.317 418.824 175.683 419.358 175.95C419.908 176.217 420.549 176.35 421.283 176.35ZM431.374 164.025H440.674V166.125H433.674V178H431.374V164.025ZM448.771 178.35C447.705 178.35 446.755 178.175 445.921 177.825C445.088 177.475 444.388 176.983 443.821 176.35C443.255 175.7 442.821 174.933 442.521 174.05C442.238 173.15 442.096 172.167 442.096 171.1V170.9C442.096 169.85 442.238 168.883 442.521 168C442.821 167.1 443.246 166.333 443.796 165.7C444.363 165.067 445.055 164.575 445.871 164.225C446.705 163.858 447.655 163.675 448.721 163.675C449.788 163.675 450.73 163.858 451.546 164.225C452.363 164.575 453.046 165.075 453.596 165.725C454.163 166.358 454.588 167.117 454.871 168C455.155 168.883 455.296 169.85 455.296 170.9V171.1C455.296 172.15 455.171 173.125 454.921 174.025C454.671 174.908 454.28 175.675 453.746 176.325C453.213 176.958 452.53 177.458 451.696 177.825C450.88 178.175 449.905 178.35 448.771 178.35ZM448.846 176.35C449.53 176.35 450.121 176.225 450.621 175.975C451.138 175.708 451.563 175.35 451.896 174.9C452.23 174.433 452.48 173.875 452.646 173.225C452.813 172.575 452.896 171.867 452.896 171.1V170.9C452.896 170.167 452.813 169.483 452.646 168.85C452.48 168.217 452.221 167.667 451.871 167.2C451.538 166.733 451.105 166.367 450.571 166.1C450.055 165.817 449.438 165.675 448.721 165.675C447.988 165.675 447.355 165.808 446.821 166.075C446.288 166.342 445.846 166.708 445.496 167.175C445.163 167.642 444.913 168.2 444.746 168.85C444.58 169.483 444.496 170.167 444.496 170.9V171.1C444.496 171.85 444.58 172.55 444.746 173.2C444.93 173.833 445.205 174.383 445.571 174.85C445.938 175.317 446.388 175.683 446.921 175.95C447.471 176.217 448.113 176.35 448.846 176.35ZM129.25 191.025H132.875L136.85 202.1L140.75 191.025H144.3V205H142.05V194.425L142.125 193.05H142.075L137.725 205H135.8L131.475 193.05H131.425L131.5 194.425V205H129.25V191.025ZM154.731 205.35C153.581 205.35 152.581 205.175 151.731 204.825C150.881 204.475 150.172 203.975 149.606 203.325C149.056 202.675 148.639 201.9 148.356 201C148.089 200.1 147.956 199.1 147.956 198V197.85C147.956 196.8 148.089 195.842 148.356 194.975C148.639 194.092 149.047 193.333 149.581 192.7C150.131 192.05 150.814 191.55 151.631 191.2C152.447 190.85 153.406 190.675 154.506 190.675C155.456 190.675 156.314 190.833 157.081 191.15C157.864 191.45 158.531 191.883 159.081 192.45C159.631 193.017 160.056 193.7 160.356 194.5C160.656 195.283 160.806 196.158 160.806 197.125V198.725H150.356C150.389 199.342 150.497 199.933 150.681 200.5C150.864 201.067 151.131 201.558 151.481 201.975C151.831 202.392 152.272 202.725 152.806 202.975C153.356 203.225 154.006 203.35 154.756 203.35C155.139 203.35 155.514 203.317 155.881 203.25C156.247 203.167 156.581 203.05 156.881 202.9C157.197 202.733 157.472 202.517 157.706 202.25C157.939 201.983 158.114 201.65 158.231 201.25H160.431C160.181 202.483 159.589 203.475 158.656 204.225C157.722 204.975 156.414 205.35 154.731 205.35ZM158.456 196.725V196.6C158.456 195.967 158.356 195.408 158.156 194.925C157.956 194.442 157.681 194.033 157.331 193.7C156.981 193.367 156.564 193.117 156.081 192.95C155.597 192.767 155.072 192.675 154.506 192.675C153.822 192.675 153.231 192.775 152.731 192.975C152.231 193.175 151.814 193.458 151.481 193.825C151.147 194.175 150.889 194.6 150.706 195.1C150.539 195.6 150.431 196.142 150.381 196.725H158.456ZM164.455 191.025H166.755V193.225H166.78C167.247 192.325 167.872 191.675 168.655 191.275C169.455 190.875 170.388 190.675 171.455 190.675C172.472 190.675 173.347 190.858 174.08 191.225C174.83 191.592 175.438 192.1 175.905 192.75C176.388 193.383 176.738 194.133 176.955 195C177.188 195.867 177.305 196.8 177.305 197.8V197.95C177.305 199.067 177.18 200.083 176.93 201C176.68 201.9 176.305 202.675 175.805 203.325C175.322 203.975 174.722 204.475 174.005 204.825C173.288 205.175 172.455 205.35 171.505 205.35C170.455 205.35 169.522 205.15 168.705 204.75C167.905 204.35 167.263 203.733 166.78 202.9H166.755V209.825H164.455V191.025ZM170.955 203.35C171.705 203.35 172.33 203.192 172.83 202.875C173.347 202.558 173.755 202.15 174.055 201.65C174.355 201.133 174.572 200.558 174.705 199.925C174.838 199.275 174.905 198.633 174.905 198V197.85C174.905 197.167 174.83 196.517 174.68 195.9C174.547 195.283 174.313 194.733 173.98 194.25C173.663 193.767 173.247 193.383 172.73 193.1C172.213 192.817 171.572 192.675 170.805 192.675C170.038 192.675 169.388 192.833 168.855 193.15C168.338 193.467 167.922 193.883 167.605 194.4C167.305 194.9 167.088 195.475 166.955 196.125C166.822 196.775 166.755 197.433 166.755 198.1V198.275C166.755 198.958 166.83 199.608 166.98 200.225C167.13 200.842 167.372 201.383 167.705 201.85C168.038 202.3 168.472 202.667 169.005 202.95C169.538 203.217 170.188 203.35 170.955 203.35ZM186.784 205.35C185.717 205.35 184.767 205.175 183.934 204.825C183.101 204.475 182.401 203.983 181.834 203.35C181.267 202.7 180.834 201.933 180.534 201.05C180.251 200.15 180.109 199.167 180.109 198.1V197.9C180.109 196.85 180.251 195.883 180.534 195C180.834 194.1 181.259 193.333 181.809 192.7C182.376 192.067 183.067 191.575 183.884 191.225C184.717 190.858 185.667 190.675 186.734 190.675C187.801 190.675 188.742 190.858 189.559 191.225C190.376 191.575 191.059 192.075 191.609 192.725C192.176 193.358 192.601 194.117 192.884 195C193.167 195.883 193.309 196.85 193.309 197.9V198.1C193.309 199.15 193.184 200.125 192.934 201.025C192.684 201.908 192.292 202.675 191.759 203.325C191.226 203.958 190.542 204.458 189.709 204.825C188.892 205.175 187.917 205.35 186.784 205.35ZM186.859 203.35C187.542 203.35 188.134 203.225 188.634 202.975C189.151 202.708 189.576 202.35 189.909 201.9C190.242 201.433 190.492 200.875 190.659 200.225C190.826 199.575 190.909 198.867 190.909 198.1V197.9C190.909 197.167 190.826 196.483 190.659 195.85C190.492 195.217 190.234 194.667 189.884 194.2C189.551 193.733 189.117 193.367 188.584 193.1C188.067 192.817 187.451 192.675 186.734 192.675C186.001 192.675 185.367 192.808 184.834 193.075C184.301 193.342 183.859 193.708 183.509 194.175C183.176 194.642 182.926 195.2 182.759 195.85C182.592 196.483 182.509 197.167 182.509 197.9V198.1C182.509 198.85 182.592 199.55 182.759 200.2C182.942 200.833 183.217 201.383 183.584 201.85C183.951 202.317 184.401 202.683 184.934 202.95C185.484 203.217 186.126 203.35 186.859 203.35ZM196.95 191.025H208.45V205H206.15V193.125H199.25V205H196.95V191.025ZM212.941 191.025H215.241V193.225H215.266C215.733 192.325 216.358 191.675 217.141 191.275C217.941 190.875 218.875 190.675 219.941 190.675C220.958 190.675 221.833 190.858 222.566 191.225C223.316 191.592 223.925 192.1 224.391 192.75C224.875 193.383 225.225 194.133 225.441 195C225.675 195.867 225.791 196.8 225.791 197.8V197.95C225.791 199.067 225.666 200.083 225.416 201C225.166 201.9 224.791 202.675 224.291 203.325C223.808 203.975 223.208 204.475 222.491 204.825C221.775 205.175 220.941 205.35 219.991 205.35C218.941 205.35 218.008 205.15 217.191 204.75C216.391 204.35 215.75 203.733 215.266 202.9H215.241V209.825H212.941V191.025ZM219.441 203.35C220.191 203.35 220.816 203.192 221.316 202.875C221.833 202.558 222.241 202.15 222.541 201.65C222.841 201.133 223.058 200.558 223.191 199.925C223.325 199.275 223.391 198.633 223.391 198V197.85C223.391 197.167 223.316 196.517 223.166 195.9C223.033 195.283 222.8 194.733 222.466 194.25C222.15 193.767 221.733 193.383 221.216 193.1C220.7 192.817 220.058 192.675 219.291 192.675C218.525 192.675 217.875 192.833 217.341 193.15C216.825 193.467 216.408 193.883 216.091 194.4C215.791 194.9 215.575 195.475 215.441 196.125C215.308 196.775 215.241 197.433 215.241 198.1V198.275C215.241 198.958 215.316 199.608 215.466 200.225C215.616 200.842 215.858 201.383 216.191 201.85C216.525 202.3 216.958 202.667 217.491 202.95C218.025 203.217 218.675 203.35 219.441 203.35ZM229.445 191.025H231.745V201.875L238.57 191.025H241.095V205H238.795V194.2L231.995 205H229.445V191.025ZM247.857 199.825C246.974 199.575 246.257 199.125 245.707 198.475C245.174 197.825 244.907 196.908 244.907 195.725V195.575C244.907 194.075 245.366 192.942 246.282 192.175C247.199 191.408 248.474 191.025 250.107 191.025H256.157V205H253.832V200.1H250.307L247.357 205H244.557L247.857 199.825ZM253.857 198.15V193.075H250.532C249.516 193.075 248.732 193.25 248.182 193.6C247.632 193.95 247.357 194.608 247.357 195.575V195.725C247.357 196.625 247.616 197.258 248.132 197.625C248.649 197.975 249.399 198.15 250.382 198.15H253.857ZM263.596 193.125H258.896V191.025H270.596V193.125H265.896V205H263.596V193.125ZM273.342 191.025H275.642V201.875L282.467 191.025H284.992V205H282.692V194.2L275.892 205H273.342V191.025ZM291.754 199.825C290.871 199.575 290.154 199.125 289.604 198.475C289.071 197.825 288.804 196.908 288.804 195.725V195.575C288.804 194.075 289.262 192.942 290.179 192.175C291.096 191.408 292.371 191.025 294.004 191.025H300.054V205H297.729V200.1H294.204L291.254 205H288.454L291.754 199.825ZM297.754 198.15V193.075H294.429C293.412 193.075 292.629 193.25 292.079 193.6C291.529 193.95 291.254 194.608 291.254 195.575V195.725C291.254 196.625 291.512 197.258 292.029 197.625C292.546 197.975 293.296 198.15 294.279 198.15H297.754ZM316.789 205.35C315.722 205.35 314.772 205.175 313.939 204.825C313.106 204.475 312.406 203.983 311.839 203.35C311.272 202.7 310.839 201.933 310.539 201.05C310.256 200.15 310.114 199.167 310.114 198.1V197.9C310.114 196.85 310.256 195.883 310.539 195C310.839 194.1 311.264 193.333 311.814 192.7C312.381 192.067 313.072 191.575 313.889 191.225C314.722 190.858 315.672 190.675 316.739 190.675C317.806 190.675 318.747 190.858 319.564 191.225C320.381 191.575 321.064 192.075 321.614 192.725C322.181 193.358 322.606 194.117 322.889 195C323.172 195.883 323.314 196.85 323.314 197.9V198.1C323.314 199.15 323.189 200.125 322.939 201.025C322.689 201.908 322.297 202.675 321.764 203.325C321.231 203.958 320.547 204.458 319.714 204.825C318.897 205.175 317.922 205.35 316.789 205.35ZM316.864 203.35C317.547 203.35 318.139 203.225 318.639 202.975C319.156 202.708 319.581 202.35 319.914 201.9C320.247 201.433 320.497 200.875 320.664 200.225C320.831 199.575 320.914 198.867 320.914 198.1V197.9C320.914 197.167 320.831 196.483 320.664 195.85C320.497 195.217 320.239 194.667 319.889 194.2C319.556 193.733 319.122 193.367 318.589 193.1C318.072 192.817 317.456 192.675 316.739 192.675C316.006 192.675 315.372 192.808 314.839 193.075C314.306 193.342 313.864 193.708 313.514 194.175C313.181 194.642 312.931 195.2 312.764 195.85C312.597 196.483 312.514 197.167 312.514 197.9V198.1C312.514 198.85 312.597 199.55 312.764 200.2C312.947 200.833 313.222 201.383 313.589 201.85C313.956 202.317 314.406 202.683 314.939 202.95C315.489 203.217 316.131 203.35 316.864 203.35ZM329.417 193.125H324.717V191.025H336.417V193.125H331.717V205H329.417V193.125ZM349.058 198.6H347.883V205H345.583V191.025H347.883V196.6H349.183L353.958 191.025H356.808L350.983 197.55L357.108 205H354.183L349.058 198.6ZM359.531 205.075C359.348 205.075 359.181 205.067 359.031 205.05C358.881 205.05 358.739 205.042 358.606 205.025V202.75C358.689 202.767 358.773 202.783 358.856 202.8C358.939 202.8 359.023 202.8 359.106 202.8C359.556 202.8 359.923 202.692 360.206 202.475C360.506 202.242 360.739 201.842 360.906 201.275C361.073 200.708 361.189 199.942 361.256 198.975C361.323 197.992 361.356 196.758 361.356 195.275V191.025H370.981V205H368.681V193.125H363.556V195.5C363.556 197.167 363.498 198.608 363.381 199.825C363.281 201.025 363.081 202.017 362.781 202.8C362.481 203.583 362.073 204.158 361.556 204.525C361.039 204.892 360.364 205.075 359.531 205.075ZM377.29 210.175C376.99 210.175 376.699 210.15 376.415 210.1C376.149 210.067 375.899 210.025 375.665 209.975V207.925C375.849 207.958 376.04 208 376.24 208.05C376.44 208.1 376.699 208.125 377.015 208.125C377.582 208.125 378.015 207.958 378.315 207.625C378.615 207.308 378.899 206.708 379.165 205.825L379.465 204.925L373.64 191.025H376.315L380.615 201.9L384.115 191.025H386.54L381.19 206.675C381.007 207.225 380.807 207.717 380.59 208.15C380.39 208.583 380.149 208.95 379.865 209.25C379.582 209.55 379.232 209.775 378.815 209.925C378.399 210.092 377.89 210.175 377.29 210.175ZM395.556 205.325C394.306 205.325 393.247 205.117 392.381 204.7C391.531 204.283 390.839 203.7 390.306 202.95C389.789 202.2 389.414 201.308 389.181 200.275C388.947 199.242 388.831 198.108 388.831 196.875V196.7C388.831 194.917 388.931 193.408 389.131 192.175C389.347 190.925 389.722 189.892 390.256 189.075C390.806 188.258 391.539 187.625 392.456 187.175C393.389 186.708 394.564 186.375 395.981 186.175C396.814 186.058 397.497 185.967 398.031 185.9C398.564 185.833 399.006 185.775 399.356 185.725C399.722 185.658 400.022 185.6 400.256 185.55C400.506 185.483 400.739 185.408 400.956 185.325V187.6C400.789 187.683 400.597 187.758 400.381 187.825C400.181 187.892 399.931 187.958 399.631 188.025C399.347 188.075 398.997 188.133 398.581 188.2C398.164 188.25 397.656 188.308 397.056 188.375C395.789 188.525 394.764 188.717 393.981 188.95C393.197 189.167 392.572 189.492 392.106 189.925C391.656 190.342 391.331 190.892 391.131 191.575C390.947 192.258 390.814 193.142 390.731 194.225H390.781C391.231 193.125 391.881 192.333 392.731 191.85C393.597 191.35 394.681 191.1 395.981 191.1C396.997 191.1 397.889 191.258 398.656 191.575C399.439 191.892 400.089 192.35 400.606 192.95C401.139 193.55 401.539 194.275 401.806 195.125C402.072 195.975 402.206 196.933 402.206 198V198.175C402.206 199.225 402.072 200.192 401.806 201.075C401.539 201.958 401.131 202.717 400.581 203.35C400.031 203.967 399.339 204.45 398.506 204.8C397.672 205.15 396.689 205.325 395.556 205.325ZM395.706 203.35C397.056 203.35 398.064 202.9 398.731 202C399.397 201.083 399.731 199.875 399.731 198.375V198.225C399.731 197.458 399.664 196.758 399.531 196.125C399.397 195.475 399.164 194.925 398.831 194.475C398.514 194.008 398.081 193.65 397.531 193.4C396.981 193.133 396.289 193 395.456 193C394.739 193 394.122 193.125 393.606 193.375C393.089 193.625 392.664 193.975 392.331 194.425C391.997 194.858 391.747 195.383 391.581 196C391.431 196.617 391.356 197.292 391.356 198.025V198.2C391.356 198.95 391.439 199.642 391.606 200.275C391.772 200.892 392.031 201.433 392.381 201.9C392.731 202.35 393.181 202.708 393.731 202.975C394.281 203.225 394.939 203.35 395.706 203.35ZM409.661 205.35C408.195 205.35 407.045 204.975 406.211 204.225C405.378 203.475 404.961 202.45 404.961 201.15C404.961 200.517 405.045 199.983 405.211 199.55C405.395 199.1 405.695 198.725 406.111 198.425C406.545 198.108 407.103 197.85 407.786 197.65C408.486 197.45 409.345 197.283 410.361 197.15C411.345 197.017 412.103 196.917 412.636 196.85C413.17 196.767 413.561 196.683 413.811 196.6C414.061 196.5 414.203 196.392 414.236 196.275C414.286 196.142 414.311 195.967 414.311 195.75V195.55C414.311 194.55 414.061 193.825 413.561 193.375C413.078 192.908 412.286 192.675 411.186 192.675C410.02 192.675 409.178 192.875 408.661 193.275C408.161 193.658 407.878 194.325 407.811 195.275H405.511C405.595 193.825 406.145 192.7 407.161 191.9C408.195 191.083 409.595 190.675 411.361 190.675C414.861 190.675 416.611 192.283 416.611 195.5V205H414.436V202.7H414.411C413.995 203.5 413.378 204.142 412.561 204.625C411.761 205.108 410.795 205.35 409.661 205.35ZM410.261 203.35C411.461 203.35 412.436 203 413.186 202.3C413.936 201.6 414.311 200.5 414.311 199V198.15C413.961 198.333 413.478 198.483 412.861 198.6C412.261 198.7 411.503 198.817 410.586 198.95C409.936 199.05 409.395 199.15 408.961 199.25C408.545 199.35 408.22 199.475 407.986 199.625C407.753 199.775 407.586 199.958 407.486 200.175C407.403 200.375 407.361 200.633 407.361 200.95C407.361 201.733 407.603 202.333 408.086 202.75C408.586 203.15 409.311 203.35 410.261 203.35ZM135.075 232.35C134.008 232.35 133.058 232.175 132.225 231.825C131.392 231.475 130.692 230.983 130.125 230.35C129.558 229.7 129.125 228.933 128.825 228.05C128.542 227.15 128.4 226.167 128.4 225.1V224.9C128.4 223.85 128.542 222.883 128.825 222C129.125 221.1 129.55 220.333 130.1 219.7C130.667 219.067 131.358 218.575 132.175 218.225C133.008 217.858 133.958 217.675 135.025 217.675C136.092 217.675 137.033 217.858 137.85 218.225C138.667 218.575 139.35 219.075 139.9 219.725C140.467 220.358 140.892 221.117 141.175 222C141.458 222.883 141.6 223.85 141.6 224.9V225.1C141.6 226.15 141.475 227.125 141.225 228.025C140.975 228.908 140.583 229.675 140.05 230.325C139.517 230.958 138.833 231.458 138 231.825C137.183 232.175 136.208 232.35 135.075 232.35ZM135.15 230.35C135.833 230.35 136.425 230.225 136.925 229.975C137.442 229.708 137.867 229.35 138.2 228.9C138.533 228.433 138.783 227.875 138.95 227.225C139.117 226.575 139.2 225.867 139.2 225.1V224.9C139.2 224.167 139.117 223.483 138.95 222.85C138.783 222.217 138.525 221.667 138.175 221.2C137.842 220.733 137.408 220.367 136.875 220.1C136.358 219.817 135.742 219.675 135.025 219.675C134.292 219.675 133.658 219.808 133.125 220.075C132.592 220.342 132.15 220.708 131.8 221.175C131.467 221.642 131.217 222.2 131.05 222.85C130.883 223.483 130.8 224.167 130.8 224.9V225.1C130.8 225.85 130.883 226.55 131.05 227.2C131.233 227.833 131.508 228.383 131.875 228.85C132.242 229.317 132.692 229.683 133.225 229.95C133.775 230.217 134.417 230.35 135.15 230.35ZM145.241 218.025H147.541V220.225H147.566C148.033 219.325 148.658 218.675 149.441 218.275C150.241 217.875 151.175 217.675 152.241 217.675C153.258 217.675 154.133 217.858 154.866 218.225C155.616 218.592 156.225 219.1 156.691 219.75C157.175 220.383 157.525 221.133 157.741 222C157.975 222.867 158.091 223.8 158.091 224.8V224.95C158.091 226.067 157.966 227.083 157.716 228C157.466 228.9 157.091 229.675 156.591 230.325C156.108 230.975 155.508 231.475 154.791 231.825C154.075 232.175 153.241 232.35 152.291 232.35C151.241 232.35 150.308 232.15 149.491 231.75C148.691 231.35 148.05 230.733 147.566 229.9H147.541V236.825H145.241V218.025ZM151.741 230.35C152.491 230.35 153.116 230.192 153.616 229.875C154.133 229.558 154.541 229.15 154.841 228.65C155.141 228.133 155.358 227.558 155.491 226.925C155.625 226.275 155.691 225.633 155.691 225V224.85C155.691 224.167 155.616 223.517 155.466 222.9C155.333 222.283 155.1 221.733 154.766 221.25C154.45 220.767 154.033 220.383 153.516 220.1C153 219.817 152.358 219.675 151.591 219.675C150.825 219.675 150.175 219.833 149.641 220.15C149.125 220.467 148.708 220.883 148.391 221.4C148.091 221.9 147.875 222.475 147.741 223.125C147.608 223.775 147.541 224.433 147.541 225.1V225.275C147.541 225.958 147.616 226.608 147.766 227.225C147.916 227.842 148.158 228.383 148.491 228.85C148.825 229.3 149.258 229.667 149.791 229.95C150.325 230.217 150.975 230.35 151.741 230.35ZM165.545 232.35C164.078 232.35 162.928 231.975 162.095 231.225C161.262 230.475 160.845 229.45 160.845 228.15C160.845 227.517 160.928 226.983 161.095 226.55C161.278 226.1 161.578 225.725 161.995 225.425C162.428 225.108 162.987 224.85 163.67 224.65C164.37 224.45 165.228 224.283 166.245 224.15C167.228 224.017 167.987 223.917 168.52 223.85C169.053 223.767 169.445 223.683 169.695 223.6C169.945 223.5 170.087 223.392 170.12 223.275C170.17 223.142 170.195 222.967 170.195 222.75V222.55C170.195 221.55 169.945 220.825 169.445 220.375C168.962 219.908 168.17 219.675 167.07 219.675C165.903 219.675 165.062 219.875 164.545 220.275C164.045 220.658 163.762 221.325 163.695 222.275H161.395C161.478 220.825 162.028 219.7 163.045 218.9C164.078 218.083 165.478 217.675 167.245 217.675C170.745 217.675 172.495 219.283 172.495 222.5V232H170.32V229.7H170.295C169.878 230.5 169.262 231.142 168.445 231.625C167.645 232.108 166.678 232.35 165.545 232.35ZM166.145 230.35C167.345 230.35 168.32 230 169.07 229.3C169.82 228.6 170.195 227.5 170.195 226V225.15C169.845 225.333 169.362 225.483 168.745 225.6C168.145 225.7 167.387 225.817 166.47 225.95C165.82 226.05 165.278 226.15 164.845 226.25C164.428 226.35 164.103 226.475 163.87 226.625C163.637 226.775 163.47 226.958 163.37 227.175C163.287 227.375 163.245 227.633 163.245 227.95C163.245 228.733 163.487 229.333 163.97 229.75C164.47 230.15 165.195 230.35 166.145 230.35ZM179.392 220.125H174.692V218.025H186.392V220.125H181.692V232H179.392V220.125ZM194.474 232.35C193.408 232.35 192.458 232.175 191.624 231.825C190.791 231.475 190.091 230.983 189.524 230.35C188.958 229.7 188.524 228.933 188.224 228.05C187.941 227.15 187.799 226.167 187.799 225.1V224.9C187.799 223.85 187.941 222.883 188.224 222C188.524 221.1 188.949 220.333 189.499 219.7C190.066 219.067 190.758 218.575 191.574 218.225C192.408 217.858 193.358 217.675 194.424 217.675C195.491 217.675 196.433 217.858 197.249 218.225C198.066 218.575 198.749 219.075 199.299 219.725C199.866 220.358 200.291 221.117 200.574 222C200.858 222.883 200.999 223.85 200.999 224.9V225.1C200.999 226.15 200.874 227.125 200.624 228.025C200.374 228.908 199.983 229.675 199.449 230.325C198.916 230.958 198.233 231.458 197.399 231.825C196.583 232.175 195.608 232.35 194.474 232.35ZM194.549 230.35C195.233 230.35 195.824 230.225 196.324 229.975C196.841 229.708 197.266 229.35 197.599 228.9C197.933 228.433 198.183 227.875 198.349 227.225C198.516 226.575 198.599 225.867 198.599 225.1V224.9C198.599 224.167 198.516 223.483 198.349 222.85C198.183 222.217 197.924 221.667 197.574 221.2C197.241 220.733 196.808 220.367 196.274 220.1C195.758 219.817 195.141 219.675 194.424 219.675C193.691 219.675 193.058 219.808 192.524 220.075C191.991 220.342 191.549 220.708 191.199 221.175C190.866 221.642 190.616 222.2 190.449 222.85C190.283 223.483 190.199 224.167 190.199 224.9V225.1C190.199 225.85 190.283 226.55 190.449 227.2C190.633 227.833 190.908 228.383 191.274 228.85C191.641 229.317 192.091 229.683 192.624 229.95C193.174 230.217 193.816 230.35 194.549 230.35ZM204.641 218.025H206.941V220.225H206.966C207.432 219.325 208.057 218.675 208.841 218.275C209.641 217.875 210.574 217.675 211.641 217.675C212.657 217.675 213.532 217.858 214.266 218.225C215.016 218.592 215.624 219.1 216.091 219.75C216.574 220.383 216.924 221.133 217.141 222C217.374 222.867 217.491 223.8 217.491 224.8V224.95C217.491 226.067 217.366 227.083 217.116 228C216.866 228.9 216.491 229.675 215.991 230.325C215.507 230.975 214.907 231.475 214.191 231.825C213.474 232.175 212.641 232.35 211.691 232.35C210.641 232.35 209.707 232.15 208.891 231.75C208.091 231.35 207.449 230.733 206.966 229.9H206.941V236.825H204.641V218.025ZM211.141 230.35C211.891 230.35 212.516 230.192 213.016 229.875C213.532 229.558 213.941 229.15 214.241 228.65C214.541 228.133 214.757 227.558 214.891 226.925C215.024 226.275 215.091 225.633 215.091 225V224.85C215.091 224.167 215.016 223.517 214.866 222.9C214.732 222.283 214.499 221.733 214.166 221.25C213.849 220.767 213.432 220.383 212.916 220.1C212.399 219.817 211.757 219.675 210.991 219.675C210.224 219.675 209.574 219.833 209.041 220.15C208.524 220.467 208.107 220.883 207.791 221.4C207.491 221.9 207.274 222.475 207.141 223.125C207.007 223.775 206.941 224.433 206.941 225.1V225.275C206.941 225.958 207.016 226.608 207.166 227.225C207.316 227.842 207.557 228.383 207.891 228.85C208.224 229.3 208.657 229.667 209.191 229.95C209.724 230.217 210.374 230.35 211.141 230.35ZM226.97 232.35C225.82 232.35 224.828 232.175 223.995 231.825C223.161 231.475 222.47 230.975 221.92 230.325C221.37 229.675 220.961 228.9 220.695 228C220.428 227.1 220.295 226.1 220.295 225V224.85C220.295 223.8 220.428 222.842 220.695 221.975C220.978 221.092 221.386 220.333 221.92 219.7C222.47 219.05 223.153 218.55 223.97 218.2C224.786 217.85 225.745 217.675 226.845 217.675C227.795 217.675 228.628 217.808 229.345 218.075C230.061 218.325 230.661 218.675 231.145 219.125C231.645 219.575 232.028 220.117 232.295 220.75C232.561 221.367 232.728 222.042 232.795 222.775H230.495C230.345 221.708 229.953 220.925 229.32 220.425C228.703 219.925 227.886 219.675 226.87 219.675C226.12 219.675 225.478 219.808 224.945 220.075C224.428 220.325 223.995 220.683 223.645 221.15C223.311 221.617 223.07 222.158 222.92 222.775C222.77 223.392 222.695 224.067 222.695 224.8V224.95C222.695 225.65 222.77 226.325 222.92 226.975C223.086 227.625 223.336 228.2 223.67 228.7C224.02 229.2 224.47 229.6 225.02 229.9C225.57 230.2 226.236 230.35 227.02 230.35C229.036 230.35 230.22 229.417 230.57 227.55H232.87C232.636 229.1 232.02 230.292 231.02 231.125C230.036 231.942 228.686 232.35 226.97 232.35ZM240 225.6H238.825V232H236.525V218.025H238.825V223.6H240.125L244.9 218.025H247.75L241.925 224.55L248.05 232H245.125L240 225.6ZM256.047 232.35C254.98 232.35 254.03 232.175 253.197 231.825C252.363 231.475 251.663 230.983 251.097 230.35C250.53 229.7 250.097 228.933 249.797 228.05C249.513 227.15 249.372 226.167 249.372 225.1V224.9C249.372 223.85 249.513 222.883 249.797 222C250.097 221.1 250.522 220.333 251.072 219.7C251.638 219.067 252.33 218.575 253.147 218.225C253.98 217.858 254.93 217.675 255.997 217.675C257.063 217.675 258.005 217.858 258.822 218.225C259.638 218.575 260.322 219.075 260.872 219.725C261.438 220.358 261.863 221.117 262.147 222C262.43 222.883 262.572 223.85 262.572 224.9V225.1C262.572 226.15 262.447 227.125 262.197 228.025C261.947 228.908 261.555 229.675 261.022 230.325C260.488 230.958 259.805 231.458 258.972 231.825C258.155 232.175 257.18 232.35 256.047 232.35ZM256.122 230.35C256.805 230.35 257.397 230.225 257.897 229.975C258.413 229.708 258.838 229.35 259.172 228.9C259.505 228.433 259.755 227.875 259.922 227.225C260.088 226.575 260.172 225.867 260.172 225.1V224.9C260.172 224.167 260.088 223.483 259.922 222.85C259.755 222.217 259.497 221.667 259.147 221.2C258.813 220.733 258.38 220.367 257.847 220.1C257.33 219.817 256.713 219.675 255.997 219.675C255.263 219.675 254.63 219.808 254.097 220.075C253.563 220.342 253.122 220.708 252.772 221.175C252.438 221.642 252.188 222.2 252.022 222.85C251.855 223.483 251.772 224.167 251.772 224.9V225.1C251.772 225.85 251.855 226.55 252.022 227.2C252.205 227.833 252.48 228.383 252.847 228.85C253.213 229.317 253.663 229.683 254.197 229.95C254.747 230.217 255.388 230.35 256.122 230.35ZM266.213 218.025H275.513V220.125H268.513V232H266.213V218.025ZM283.61 232.35C282.543 232.35 281.593 232.175 280.76 231.825C279.927 231.475 279.227 230.983 278.66 230.35C278.093 229.7 277.66 228.933 277.36 228.05C277.077 227.15 276.935 226.167 276.935 225.1V224.9C276.935 223.85 277.077 222.883 277.36 222C277.66 221.1 278.085 220.333 278.635 219.7C279.202 219.067 279.893 218.575 280.71 218.225C281.543 217.858 282.493 217.675 283.56 217.675C284.627 217.675 285.568 217.858 286.385 218.225C287.202 218.575 287.885 219.075 288.435 219.725C289.002 220.358 289.427 221.117 289.71 222C289.993 222.883 290.135 223.85 290.135 224.9V225.1C290.135 226.15 290.01 227.125 289.76 228.025C289.51 228.908 289.118 229.675 288.585 230.325C288.052 230.958 287.368 231.458 286.535 231.825C285.718 232.175 284.743 232.35 283.61 232.35ZM283.685 230.35C284.368 230.35 284.96 230.225 285.46 229.975C285.977 229.708 286.402 229.35 286.735 228.9C287.068 228.433 287.318 227.875 287.485 227.225C287.652 226.575 287.735 225.867 287.735 225.1V224.9C287.735 224.167 287.652 223.483 287.485 222.85C287.318 222.217 287.06 221.667 286.71 221.2C286.377 220.733 285.943 220.367 285.41 220.1C284.893 219.817 284.277 219.675 283.56 219.675C282.827 219.675 282.193 219.808 281.66 220.075C281.127 220.342 280.685 220.708 280.335 221.175C280.002 221.642 279.752 222.2 279.585 222.85C279.418 223.483 279.335 224.167 279.335 224.9V225.1C279.335 225.85 279.418 226.55 279.585 227.2C279.768 227.833 280.043 228.383 280.41 228.85C280.777 229.317 281.227 229.683 281.76 229.95C282.31 230.217 282.952 230.35 283.685 230.35ZM300.197 218.025H302.497V228.875L309.322 218.025H311.847V232H309.547V221.2L302.747 232H300.197V218.025ZM322.184 232.35C321.034 232.35 320.043 232.175 319.209 231.825C318.376 231.475 317.684 230.975 317.134 230.325C316.584 229.675 316.176 228.9 315.909 228C315.643 227.1 315.509 226.1 315.509 225V224.85C315.509 223.8 315.643 222.842 315.909 221.975C316.193 221.092 316.601 220.333 317.134 219.7C317.684 219.05 318.368 218.55 319.184 218.2C320.001 217.85 320.959 217.675 322.059 217.675C323.009 217.675 323.843 217.808 324.559 218.075C325.276 218.325 325.876 218.675 326.359 219.125C326.859 219.575 327.243 220.117 327.509 220.75C327.776 221.367 327.943 222.042 328.009 222.775H325.709C325.559 221.708 325.168 220.925 324.534 220.425C323.918 219.925 323.101 219.675 322.084 219.675C321.334 219.675 320.693 219.808 320.159 220.075C319.643 220.325 319.209 220.683 318.859 221.15C318.526 221.617 318.284 222.158 318.134 222.775C317.984 223.392 317.909 224.067 317.909 224.8V224.95C317.909 225.65 317.984 226.325 318.134 226.975C318.301 227.625 318.551 228.2 318.884 228.7C319.234 229.2 319.684 229.6 320.234 229.9C320.784 230.2 321.451 230.35 322.234 230.35C324.251 230.35 325.434 229.417 325.784 227.55H328.084C327.851 229.1 327.234 230.292 326.234 231.125C325.251 231.942 323.901 232.35 322.184 232.35ZM335.215 225.6H334.04V232H331.74V218.025H334.04V223.6H335.34L340.115 218.025H342.965L337.14 224.55L343.265 232H340.34L335.215 225.6ZM348.482 237.175C348.182 237.175 347.89 237.15 347.607 237.1C347.34 237.067 347.09 237.025 346.857 236.975V234.925C347.04 234.958 347.232 235 347.432 235.05C347.632 235.1 347.89 235.125 348.207 235.125C348.773 235.125 349.207 234.958 349.507 234.625C349.807 234.308 350.09 233.708 350.357 232.825L350.657 231.925L344.832 218.025H347.507L351.807 228.9L355.307 218.025H357.732L352.382 233.675C352.198 234.225 351.998 234.717 351.782 235.15C351.582 235.583 351.34 235.95 351.057 236.25C350.773 236.55 350.423 236.775 350.007 236.925C349.59 237.092 349.082 237.175 348.482 237.175ZM365.715 232.35C364.565 232.35 363.573 232.175 362.74 231.825C361.906 231.475 361.215 230.975 360.665 230.325C360.115 229.675 359.706 228.9 359.44 228C359.173 227.1 359.04 226.1 359.04 225V224.85C359.04 223.8 359.173 222.842 359.44 221.975C359.723 221.092 360.131 220.333 360.665 219.7C361.215 219.05 361.898 218.55 362.715 218.2C363.531 217.85 364.49 217.675 365.59 217.675C366.54 217.675 367.373 217.808 368.09 218.075C368.806 218.325 369.406 218.675 369.89 219.125C370.39 219.575 370.773 220.117 371.04 220.75C371.306 221.367 371.473 222.042 371.54 222.775H369.24C369.09 221.708 368.698 220.925 368.065 220.425C367.448 219.925 366.631 219.675 365.615 219.675C364.865 219.675 364.223 219.808 363.69 220.075C363.173 220.325 362.74 220.683 362.39 221.15C362.056 221.617 361.815 222.158 361.665 222.775C361.515 223.392 361.44 224.067 361.44 224.8V224.95C361.44 225.65 361.515 226.325 361.665 226.975C361.831 227.625 362.081 228.2 362.415 228.7C362.765 229.2 363.215 229.6 363.765 229.9C364.315 230.2 364.981 230.35 365.765 230.35C367.781 230.35 368.965 229.417 369.315 227.55H371.615C371.381 229.1 370.765 230.292 369.765 231.125C368.781 231.942 367.431 232.35 365.715 232.35ZM381.096 232.35C379.946 232.35 378.954 232.175 378.121 231.825C377.287 231.475 376.596 230.975 376.046 230.325C375.496 229.675 375.087 228.9 374.821 228C374.554 227.1 374.421 226.1 374.421 225V224.85C374.421 223.8 374.554 222.842 374.821 221.975C375.104 221.092 375.512 220.333 376.046 219.7C376.596 219.05 377.279 218.55 378.096 218.2C378.912 217.85 379.871 217.675 380.971 217.675C381.921 217.675 382.754 217.808 383.471 218.075C384.187 218.325 384.787 218.675 385.271 219.125C385.771 219.575 386.154 220.117 386.421 220.75C386.687 221.367 386.854 222.042 386.921 222.775H384.621C384.471 221.708 384.079 220.925 383.446 220.425C382.829 219.925 382.012 219.675 380.996 219.675C380.246 219.675 379.604 219.808 379.071 220.075C378.554 220.325 378.121 220.683 377.771 221.15C377.437 221.617 377.196 222.158 377.046 222.775C376.896 223.392 376.821 224.067 376.821 224.8V224.95C376.821 225.65 376.896 226.325 377.046 226.975C377.212 227.625 377.462 228.2 377.796 228.7C378.146 229.2 378.596 229.6 379.146 229.9C379.696 230.2 380.362 230.35 381.146 230.35C383.162 230.35 384.346 229.417 384.696 227.55H386.996C386.762 229.1 386.146 230.292 385.146 231.125C384.162 231.942 382.812 232.35 381.096 232.35ZM393.113 220.125H388.413V218.025H400.113V220.125H395.413V232H393.113V220.125ZM402.858 218.025H409.233C409.8 218.025 410.342 218.083 410.858 218.2C411.392 218.317 411.858 218.508 412.258 218.775C412.658 219.025 412.975 219.375 413.208 219.825C413.458 220.258 413.583 220.8 413.583 221.45V221.575C413.583 222.425 413.358 223.092 412.908 223.575C412.475 224.058 411.9 224.4 411.183 224.6V224.65C412.133 224.883 412.85 225.258 413.333 225.775C413.833 226.275 414.083 227 414.083 227.95V228.125C414.083 228.875 413.95 229.5 413.683 230C413.433 230.5 413.083 230.9 412.633 231.2C412.183 231.5 411.658 231.708 411.058 231.825C410.458 231.942 409.817 232 409.133 232H402.858V218.025ZM408.608 230.1C409.025 230.1 409.417 230.083 409.783 230.05C410.167 230 410.492 229.9 410.758 229.75C411.042 229.6 411.258 229.383 411.408 229.1C411.575 228.817 411.658 228.442 411.658 227.975V227.825C411.658 227.358 411.575 226.983 411.408 226.7C411.258 226.4 411.042 226.175 410.758 226.025C410.492 225.858 410.167 225.75 409.783 225.7C409.417 225.633 409.008 225.6 408.558 225.6H405.158V230.1H408.608ZM408.508 223.825C408.892 223.825 409.25 223.8 409.583 223.75C409.917 223.7 410.2 223.608 410.433 223.475C410.683 223.342 410.875 223.15 411.008 222.9C411.158 222.65 411.233 222.317 411.233 221.9V221.75C411.233 221.367 411.158 221.058 411.008 220.825C410.858 220.575 410.658 220.383 410.408 220.25C410.175 220.117 409.9 220.025 409.583 219.975C409.267 219.925 408.942 219.9 408.608 219.9H405.158V223.825H408.508ZM421.453 232.35C419.987 232.35 418.837 231.975 418.003 231.225C417.17 230.475 416.753 229.45 416.753 228.15C416.753 227.517 416.837 226.983 417.003 226.55C417.187 226.1 417.487 225.725 417.903 225.425C418.337 225.108 418.895 224.85 419.578 224.65C420.278 224.45 421.137 224.283 422.153 224.15C423.137 224.017 423.895 223.917 424.428 223.85C424.962 223.767 425.353 223.683 425.603 223.6C425.853 223.5 425.995 223.392 426.028 223.275C426.078 223.142 426.103 222.967 426.103 222.75V222.55C426.103 221.55 425.853 220.825 425.353 220.375C424.87 219.908 424.078 219.675 422.978 219.675C421.812 219.675 420.97 219.875 420.453 220.275C419.953 220.658 419.67 221.325 419.603 222.275H417.303C417.387 220.825 417.937 219.7 418.953 218.9C419.987 218.083 421.387 217.675 423.153 217.675C426.653 217.675 428.403 219.283 428.403 222.5V232H426.228V229.7H426.203C425.787 230.5 425.17 231.142 424.353 231.625C423.553 232.108 422.587 232.35 421.453 232.35ZM422.053 230.35C423.253 230.35 424.228 230 424.978 229.3C425.728 228.6 426.103 227.5 426.103 226V225.15C425.753 225.333 425.27 225.483 424.653 225.6C424.053 225.7 423.295 225.817 422.378 225.95C421.728 226.05 421.187 226.15 420.753 226.25C420.337 226.35 420.012 226.475 419.778 226.625C419.545 226.775 419.378 226.958 419.278 227.175C419.195 227.375 419.153 227.633 419.153 227.95C419.153 228.733 419.395 229.333 419.878 229.75C420.378 230.15 421.103 230.35 422.053 230.35ZM275.67 266.6C274.05 266.6 273.03 265.64 272.43 264.62C271.71 263.42 271.41 261.5 271.41 260.06C271.41 257.54 272.13 254.66 272.97 252.56C273.99 249.92 275.61 247.34 277.65 245.36C279.99 243.14 281.67 242.72 282.81 242.72C284.43 242.72 285.51 243.38 286.23 244.52C287.07 245.78 287.19 247.34 287.19 248.54C287.19 252.68 286.11 255.68 284.61 258.56C283.35 260.96 282.15 262.82 280.11 264.56C279.09 265.46 277.53 266.6 275.67 266.6ZM275.79 265.7C276.99 265.7 277.77 265.16 278.61 264.08C279.57 262.82 280.95 260.06 281.85 258.02C283.71 253.76 284.13 251.6 284.49 250.1C284.79 248.9 285.03 247.88 285.03 246.44C285.03 245.72 284.97 244.76 284.43 244.22C284.07 243.86 283.47 243.62 282.99 243.62C281.37 243.62 280.29 245.12 279.69 245.9C278.49 247.58 278.01 248.3 276.81 250.82C275.31 254 275.01 255.08 274.35 257.36C273.81 259.22 273.57 260 273.57 262.28C273.57 263.18 273.57 264.02 274.11 264.8C274.59 265.52 275.07 265.7 275.79 265.7ZM289.419 266L295.959 247.4C296.319 246.44 296.079 247.4 296.559 245.84C296.739 245.24 296.919 244.76 296.919 244.34C296.919 243.8 296.499 243.62 296.259 243.62C295.959 243.62 295.419 243.92 294.459 245.06C293.499 246.26 292.779 247.28 292.059 248.48L288.999 253.52L288.279 253.16L291.159 248.42C291.759 247.46 293.199 245.3 294.339 243.98C294.819 243.44 295.479 242.72 296.439 242.72C296.979 242.72 297.579 242.9 298.059 243.38C298.599 243.86 298.959 244.64 298.959 245.42C298.959 246.26 298.239 248.36 297.939 249.32L295.119 257.36L295.479 257.54C296.739 255.44 296.979 254.96 297.519 254.06C299.079 251.54 300.759 249.44 302.199 247.76C303.579 246.08 305.139 244.34 307.119 243.38C307.479 243.2 308.559 242.72 309.639 242.72C310.839 242.72 311.919 243.38 311.919 244.64C311.919 245 311.799 245.54 311.559 245.9C311.319 246.2 310.839 246.56 310.059 246.56C308.739 246.56 308.319 245.48 308.319 244.88C308.319 244.58 308.439 244.22 308.619 243.92L308.559 243.74C306.999 244.04 305.919 244.94 304.119 246.86C302.199 248.9 300.999 250.4 298.959 253.34C297.459 255.5 295.779 258.2 294.519 260.72C293.799 262.16 292.659 264.8 292.119 266H289.419ZM327.053 255.98L327.773 256.28L325.133 261.02C324.053 262.94 322.793 264.86 321.713 265.88C321.173 266.36 320.753 266.6 319.973 266.6C319.253 266.6 318.713 266.36 318.353 265.82C317.873 265.22 317.813 264.38 317.813 263.78C317.813 262.64 318.113 261.5 318.293 261.08L320.693 254.54H320.453C318.593 257.6 317.093 260.06 314.933 262.52C313.373 264.32 311.033 266.6 309.113 266.6C308.393 266.6 307.553 266.18 307.072 265.34C306.652 264.62 306.472 263.48 306.472 262.58C306.472 260.66 307.072 257.84 309.953 253.52C311.993 250.46 313.793 248.48 316.673 246.08C319.913 243.38 321.833 242.72 323.093 242.72C324.053 242.72 324.833 243.08 325.253 243.56C325.553 243.98 325.733 244.52 325.733 245.06C325.733 246.14 325.193 247.58 325.013 248.18L320.693 261.08C320.573 261.38 320.153 262.7 320.093 263C319.973 263.42 319.673 264.5 319.673 264.92C319.673 265.52 320.033 265.7 320.273 265.7C320.873 265.7 321.653 264.98 322.312 263.96C322.673 263.42 323.933 261.5 324.413 260.6L327.053 255.98ZM321.713 250.16C323.933 245.36 323.933 244.7 323.933 244.46C323.933 244.22 323.813 243.98 323.693 243.86C323.573 243.74 323.333 243.62 322.973 243.62C320.753 243.62 317.393 247.34 314.993 250.64C313.373 252.8 311.873 255.26 310.553 257.72C308.333 261.86 308.033 263.3 308.033 264.26C308.033 265.46 308.753 265.7 309.292 265.7C310.613 265.7 312.173 264.2 313.013 263.3C315.593 260.66 316.793 258.74 318.053 256.76C320.513 253.04 320.573 252.56 321.713 250.16ZM335.132 244.28H329.672L329.972 243.38H335.492L339.692 230.6H342.392L338.192 243.38H343.952L343.652 244.28H337.832L331.592 261.92C330.872 264.02 330.632 264.5 330.632 264.98C330.632 265.46 330.872 265.7 331.232 265.7C331.592 265.7 332.252 265.46 333.452 263.96C333.872 263.42 335.132 261.62 335.552 260.9L338.612 255.86L339.332 256.22L336.452 260.9C335.792 261.98 334.652 263.84 333.272 265.34C332.792 265.88 332.072 266.6 330.992 266.6C330.332 266.6 329.912 266.36 329.552 266C328.772 265.28 328.592 264.38 328.592 263.78C328.592 263 329.312 260.84 329.612 260L335.132 244.28ZM344.693 266.6C343.073 266.6 342.053 265.64 341.453 264.62C340.733 263.42 340.433 261.5 340.433 260.06C340.433 257.54 341.153 254.66 341.993 252.56C343.013 249.92 344.633 247.34 346.673 245.36C349.013 243.14 350.693 242.72 351.833 242.72C353.453 242.72 354.533 243.38 355.253 244.52C356.093 245.78 356.213 247.34 356.213 248.54C356.213 252.68 355.133 255.68 353.633 258.56C352.373 260.96 351.173 262.82 349.133 264.56C348.113 265.46 346.553 266.6 344.693 266.6ZM344.813 265.7C346.013 265.7 346.793 265.16 347.633 264.08C348.593 262.82 349.973 260.06 350.873 258.02C352.733 253.76 353.153 251.6 353.513 250.1C353.813 248.9 354.053 247.88 354.053 246.44C354.053 245.72 353.993 244.76 353.453 244.22C353.093 243.86 352.493 243.62 352.013 243.62C350.393 243.62 349.313 245.12 348.713 245.9C347.513 247.58 347.033 248.3 345.833 250.82C344.333 254 344.033 255.08 343.373 257.36C342.833 259.22 342.593 260 342.593 262.28C342.593 263.18 342.593 264.02 343.133 264.8C343.613 265.52 344.093 265.7 344.813 265.7ZM358.443 266L364.983 247.4C365.343 246.44 365.103 247.4 365.583 245.84C365.763 245.24 365.943 244.76 365.943 244.34C365.943 243.8 365.523 243.62 365.283 243.62C364.983 243.62 364.443 243.92 363.483 245.06C362.523 246.26 361.803 247.28 361.083 248.48L358.023 253.52L357.303 253.16L360.183 248.42C360.783 247.46 362.223 245.3 363.363 243.98C363.843 243.44 364.503 242.72 365.463 242.72C366.003 242.72 366.603 242.9 367.083 243.38C367.623 243.86 367.983 244.64 367.983 245.42C367.983 246.26 367.263 248.36 366.963 249.32L364.143 257.36L364.503 257.54C365.763 255.44 366.003 254.96 366.543 254.06C368.103 251.54 369.783 249.44 371.223 247.76C372.603 246.08 374.163 244.34 376.143 243.38C376.503 243.2 377.583 242.72 378.663 242.72C379.863 242.72 380.943 243.38 380.943 244.64C380.943 245 380.823 245.54 380.583 245.9C380.343 246.2 379.863 246.56 379.083 246.56C377.763 246.56 377.343 245.48 377.343 244.88C377.343 244.58 377.463 244.22 377.643 243.92L377.583 243.74C376.023 244.04 374.943 244.94 373.143 246.86C371.223 248.9 370.023 250.4 367.983 253.34C366.483 255.5 364.803 258.2 363.543 260.72C362.823 262.16 361.683 264.8 361.143 266H358.443ZM405.52 254.54H406.48C406 256.16 405.4 257.84 404.44 259.58C402.58 263.06 400.78 264.68 400.24 265.1C398.86 266.24 397.84 266.6 396.22 266.6C394.78 266.6 393.4 266.36 392.26 264.74C391.36 263.48 391 261.68 391 260.18C391 257.36 392.26 253.7 393.4 251.54C394.54 249.44 396.58 246.68 398.5 245.18C400.24 243.8 402.64 242.72 404.8 242.72C405.16 242.72 405.82 242.78 406.36 243.08C407.08 243.5 407.2 244.22 407.2 244.7C407.2 245.12 407.02 245.42 406.9 245.66C406.6 246.14 406.18 246.26 405.64 246.26C404.5 246.26 404.02 245.3 404.02 244.64C404.02 244.4 404.02 243.92 404.44 243.56V243.5C404.32 243.5 404.14 243.5 404.02 243.5C402.82 243.56 401.5 244.4 400.54 245.24C398.92 246.62 398.02 248.3 397.3 249.74C396.34 251.6 395.38 253.94 394.66 256.16C394.06 257.96 393.52 260.36 393.52 261.92C393.52 262.88 393.7 263.96 394.54 264.86C395.14 265.52 395.8 265.7 396.58 265.7C397.78 265.7 398.74 265.16 399.58 264.44C401.26 263.06 402.46 261.14 403.36 259.52C404.2 257.96 404.92 256.4 405.52 254.54ZM421.805 221.9H423.005L410.345 263.12C410.225 263.48 410.045 264.38 410.045 264.74C410.045 264.92 410.105 265.64 410.705 265.64C411.605 265.64 412.625 264.38 413.165 263.6C413.645 262.94 414.065 262.16 414.545 261.5C414.665 261.32 414.845 261.08 414.965 260.9L418.025 255.86L418.745 256.22L415.865 260.9C415.205 261.98 415.025 262.46 413.285 264.68C412.265 265.94 411.605 266.6 410.465 266.6C409.865 266.6 409.385 266.42 408.965 266C408.185 265.28 408.065 264.5 408.065 263.72C408.065 262.46 408.425 261.5 408.785 260.42L417.605 235.1H417.425L408.485 249.98L407.645 249.62L417.365 233.48C418.685 231.32 419.585 228.92 420.185 227.06L421.805 221.9ZM434.048 257.48L433.748 257.3C433.028 258.44 432.488 259.16 431.768 260.06C430.808 261.32 429.968 262.34 429.068 263.24C428.468 263.84 427.148 265.1 426.488 265.58C425.828 266.06 424.988 266.6 423.968 266.6C423.188 266.6 422.648 266.42 422.168 265.82C421.808 265.34 421.568 264.56 421.568 263.9C421.568 263.3 421.868 262.34 422.048 261.8L427.628 246.44C428.228 244.82 428.228 244.46 428.228 244.34C428.228 244.1 428.048 243.62 427.628 243.62C427.268 243.62 426.728 243.98 426.428 244.22C426.008 244.64 425.048 245.84 424.688 246.38C424.388 246.8 424.088 247.28 423.788 247.76C423.608 248 423.428 248.24 423.308 248.48L420.248 253.58L419.588 253.16L422.408 248.42C422.648 248 423.668 246.44 424.028 245.96C424.568 245.18 425.408 244.1 425.948 243.62C426.428 243.2 427.028 242.72 427.928 242.72C428.528 242.72 429.068 243.02 429.428 243.38C429.908 243.86 430.268 244.76 430.268 245.54C430.268 246.2 430.088 247.1 429.308 249.32L424.568 262.64C424.088 263.9 424.088 264.26 424.088 264.38C424.088 264.86 424.388 265.28 425.048 265.28C425.948 265.28 426.788 264.32 427.988 263.12C428.888 262.22 430.088 260.84 430.988 259.7C432.248 258.08 433.568 256.16 434.348 254.66C435.188 253.1 436.208 250.82 436.748 249.38L438.968 243.38H441.668L434.768 262.88C434.588 263.42 434.168 264.38 434.168 265.04C434.168 265.4 434.348 265.7 434.828 265.7C435.368 265.7 435.908 265.22 436.688 264.26C437.708 263.06 438.728 261.38 439.028 260.9L442.088 255.8L442.808 256.22L439.928 260.9C439.448 261.68 438.308 263.6 437.408 264.68C436.508 265.82 435.488 266.6 434.408 266.6C433.268 266.6 432.188 265.58 432.188 263.78C432.188 262.94 432.368 261.98 433.088 260L434.048 257.48ZM458.19 221.9H459.45L450.75 251.48H450.99C451.83 249.86 453.39 247.34 454.53 245.96C456.81 243.2 458.19 242.72 459.15 242.72C460.47 242.72 461.61 243.44 462.15 244.22C462.69 245.06 462.81 246.38 462.81 247.34C462.81 251.36 459.87 256.34 456.57 260.24C455.07 262.04 450.93 266.6 447.57 266.6C446.49 266.6 445.89 266.18 445.53 265.7C445.29 265.4 445.05 264.86 445.05 264.02C445.05 262.82 445.53 261.74 445.77 261.02L454.05 235.1H453.81L444.87 249.98L444.09 249.62L453.81 233.48C455.43 230.84 456.09 228.68 456.57 227.06L458.19 221.9ZM449.13 257.6C448.89 258.32 448.59 259.04 448.35 259.76C447.57 261.98 447.09 263.18 447.09 264.2C447.09 265.1 447.27 265.7 448.11 265.7C449.25 265.7 450.45 264.5 451.11 263.78C454.35 260.24 456.51 256.82 458.73 252.32C459.81 250.16 460.83 247.82 460.83 245.72C460.83 243.92 459.81 243.62 459.15 243.62C458.55 243.62 457.41 243.98 455.37 246.38C453.93 248.12 452.85 249.8 451.77 251.72C450.33 254.36 449.73 255.86 449.13 257.6Z" fill="black"/>
</svg>
