<svg width="116" height="120" viewBox="0 0 116 120" fill="none" xmlns="http://www.w3.org/2000/svg">
<path d="M55.8138 93.9773C44.4398 92.0095 40.0654 90.2982 30.2718 84.5154C29.6786 85.0133 27.7768 87.5606 27.1917 88.3133C37.0951 94.4128 43.5214 97.0568 54.9964 98.6218C68.5365 98.6506 77.3806 95.4969 88.7561 88.3133L86.0755 84.4275C76.906 89.912 71.0698 92.159 60.5999 93.8386L60.597 72.3201L113.985 72.3152C108.273 100.189 87.7652 117.478 59.5892 119.423C30.7645 120.931 7.63194 99.7982 1.79911 72.3152H55.8138V93.9773ZM115.716 51.9129C115.928 56.7248 115.879 61.9892 115 66.7185C78.519 67.7265 37.5363 66.8368 0.716105 66.823C-0.136601 61.8317 -0.0700241 56.9365 0.120402 51.9129H115.716ZM56.1946 0.0759507C85.0176 -1.43204 108.149 19.6979 113.984 47.1785C113.984 47.1807 113.984 47.1831 113.985 47.1853H59.97V25.5213C71.3439 27.489 75.7184 29.2004 85.512 34.9832C86.105 34.4853 88.0038 31.9407 88.5901 31.1863C78.6878 25.0875 72.2617 22.4436 60.7874 20.8787C47.2474 20.8499 38.403 24.0028 27.0276 31.1863L29.7073 35.0711C38.8771 29.5864 44.7137 27.3396 55.1839 25.6599V25.6609L55.1868 47.1804L1.79911 47.1853V47.1834L2.07743 45.8845C8.15336 18.7735 28.4588 1.99057 56.1946 0.0759507Z" fill="#304595"/>
</svg>
