<svg width="126" height="137" viewBox="0 0 126 137" fill="none" xmlns="http://www.w3.org/2000/svg">
<path d="M41.8549 0.0195747L83.3111 0C76.9263 7.42153 69.3138 15.4067 62.6574 22.7146H104.573L84.0119 45.2703H125.245L104.08 68.4921C111.133 76.1139 118.136 83.7834 125.087 91.4987H83.5269C90.4914 98.8807 97.5065 106.784 104.373 114.301H62.9801L82.6215 135.792L82.2317 136.639C71.2434 137.324 53.3582 136.722 41.8408 136.715L62.4275 114.19H20.6731C27.0409 106.787 34.6263 98.8266 41.264 91.5369H0.0423252L21.0806 68.5362C14.4864 60.9249 6.84402 52.898 0 45.4096H41.6191L20.8801 22.6617L62.304 22.6611C55.7187 15.0357 48.4431 7.81074 41.8549 0.0195747Z" fill="#AD3389"/>
</svg>
