<svg width="179" height="32" viewBox="0 0 179 32" fill="none" xmlns="http://www.w3.org/2000/svg">
<path d="M9.77218e-05 9.53674e-07H24.2001V30.8H20.0641V3.608H4.1361V30.8H9.77218e-05V9.53674e-07ZM31.0201 31.24C30.5801 31.24 30.1401 31.196 29.7001 31.108V27.236C29.8468 27.2653 30.0668 27.28 30.3601 27.28C31.0054 27.28 31.5628 27.0747 32.0321 26.664C32.5308 26.2533 32.9268 25.5347 33.2201 24.508C33.5134 23.4813 33.7334 22.088 33.8801 20.328C34.0268 18.568 34.1001 16.3387 34.1001 13.64V7.48H50.8201V30.8H46.9481V10.912H37.9721V14.52C37.9721 17.776 37.8254 20.4747 37.5321 22.616C37.2388 24.7573 36.7988 26.4733 36.2121 27.764C35.6548 29.0253 34.9361 29.92 34.0561 30.448C33.1761 30.976 32.1641 31.24 31.0201 31.24ZM64.5024 31.24C63.2117 31.24 62.0677 31.064 61.0704 30.712C60.1024 30.3307 59.281 29.8173 58.6064 29.172C57.9317 28.5267 57.4184 27.764 57.0664 26.884C56.7144 26.004 56.5384 25.036 56.5384 23.98C56.5384 21.6627 57.213 19.9907 58.5624 18.964C59.941 17.9373 61.9064 17.424 64.4584 17.424H72.0264V15.84C72.0264 13.8453 71.5717 12.4667 70.6624 11.704C69.7824 10.9413 68.4477 10.56 66.6584 10.56C64.9864 10.56 63.769 10.8827 63.0064 11.528C62.2437 12.144 61.8184 12.848 61.7304 13.64H57.8584C57.917 12.7013 58.1664 11.836 58.6064 11.044C59.0757 10.2227 59.6917 9.51867 60.4544 8.932C61.2464 8.34534 62.185 7.89067 63.2704 7.568C64.3557 7.216 65.5584 7.04 66.8784 7.04C69.6357 7.04 71.821 7.7 73.4344 9.02C75.077 10.3107 75.8984 12.4373 75.8984 15.4V24.86C75.8984 26.092 75.8984 27.1773 75.8984 28.116C75.9277 29.0253 76.001 29.92 76.1184 30.8H72.7304C72.6424 30.1253 72.5837 29.4947 72.5544 28.908C72.525 28.292 72.5104 27.6027 72.5104 26.84C71.8944 28.072 70.897 29.1133 69.5184 29.964C68.1397 30.8147 66.4677 31.24 64.5024 31.24ZM65.3384 27.72C66.2477 27.72 67.0984 27.6027 67.8904 27.368C68.7117 27.104 69.4304 26.7373 70.0464 26.268C70.6624 25.7693 71.1464 25.168 71.4984 24.464C71.8504 23.76 72.0264 22.9387 72.0264 22V20.416H65.1184C63.681 20.416 62.5517 20.7093 61.7304 21.296C60.909 21.8533 60.4984 22.748 60.4984 23.98C60.4984 25.0653 60.8797 25.96 61.6424 26.664C62.4344 27.368 63.6664 27.72 65.3384 27.72ZM82.7373 7.48H86.6093V17.248H89.6893L98.4013 7.48H102.977L92.8573 18.656L103.417 30.8H98.4893L89.6893 20.592H86.6093V30.8H82.7373V7.48ZM114.26 31.24C112.97 31.24 111.826 31.064 110.828 30.712C109.86 30.3307 109.039 29.8173 108.364 29.172C107.69 28.5267 107.176 27.764 106.824 26.884C106.472 26.004 106.296 25.036 106.296 23.98C106.296 21.6627 106.971 19.9907 108.32 18.964C109.699 17.9373 111.664 17.424 114.216 17.424H121.784V15.84C121.784 13.8453 121.33 12.4667 120.42 11.704C119.54 10.9413 118.206 10.56 116.416 10.56C114.744 10.56 113.527 10.8827 112.764 11.528C112.002 12.144 111.576 12.848 111.488 13.64H107.616C107.675 12.7013 107.924 11.836 108.364 11.044C108.834 10.2227 109.45 9.51867 110.212 8.932C111.004 8.34534 111.943 7.89067 113.028 7.568C114.114 7.216 115.316 7.04 116.636 7.04C119.394 7.04 121.579 7.7 123.192 9.02C124.835 10.3107 125.656 12.4373 125.656 15.4V24.86C125.656 26.092 125.656 27.1773 125.656 28.116C125.686 29.0253 125.759 29.92 125.876 30.8H122.488C122.4 30.1253 122.342 29.4947 122.312 28.908C122.283 28.292 122.268 27.6027 122.268 26.84C121.652 28.072 120.655 29.1133 119.276 29.964C117.898 30.8147 116.226 31.24 114.26 31.24ZM115.096 27.72C116.006 27.72 116.856 27.6027 117.648 27.368C118.47 27.104 119.188 26.7373 119.804 26.268C120.42 25.7693 120.904 25.168 121.256 24.464C121.608 23.76 121.784 22.9387 121.784 22V20.416H114.876C113.439 20.416 112.31 20.7093 111.488 21.296C110.667 21.8533 110.256 22.748 110.256 23.98C110.256 25.0653 110.638 25.96 111.4 26.664C112.192 27.368 113.424 27.72 115.096 27.72ZM137.389 10.912H129.425V7.48H149.225V10.912H141.261V30.8H137.389V10.912ZM153.636 7.48H157.508V16.28H162.216C165.149 16.28 167.305 16.9253 168.684 18.216C170.092 19.5067 170.796 21.296 170.796 23.584C170.796 25.8133 170.092 27.5733 168.684 28.864C167.305 30.1547 165.149 30.8 162.216 30.8H153.636V7.48ZM161.996 27.368C163.814 27.368 165.09 27.0453 165.824 26.4C166.557 25.7547 166.924 24.8013 166.924 23.54C166.924 22.2787 166.557 21.3253 165.824 20.68C165.09 20.0347 163.814 19.712 161.996 19.712H157.508V27.368H161.996ZM174.404 7.48H178.276V30.8H174.404V7.48Z" fill="black"/>
</svg>
